<?xml version="1.0" encoding="UTF-8"?><svg id="Layer_2" xmlns="http://www.w3.org/2000/svg" xmlns:xlink="http://www.w3.org/1999/xlink" viewBox="0 0 526 87.6"><defs><style>.cls-1{fill:url(#Orange__Yellow-13);}.cls-2{fill:url(#Orange__Yellow-12);}.cls-3{fill:url(#Orange__Yellow-9);}.cls-4{fill:url(#Orange__Yellow-5);}.cls-5{fill:url(#Orange__Yellow-2);}.cls-6{fill:url(#Orange__Yellow-4);}.cls-7{fill:url(#Orange__Yellow-10);}.cls-8{fill:url(#Orange__Yellow-3);}.cls-9{fill:#141414;}.cls-10{fill:url(#Orange__Yellow);}.cls-11{fill:url(#Orange__Yellow-6);}.cls-12{fill:url(#Orange__Yellow-11);}.cls-13{fill:url(#Orange__Yellow-8);}.cls-14{fill:url(#Orange__Yellow-7);}</style><linearGradient id="Orange__Yellow" x1="29.11" y1="-4.36" x2="29.11" y2="128.62" gradientTransform="matrix(1, 0, 0, 1, 0, 0)" gradientUnits="userSpaceOnUse"><stop offset="0" stop-color="#fff33b"/><stop offset=".04" stop-color="#fee62d"/><stop offset=".12" stop-color="#fdd51b"/><stop offset=".2" stop-color="#fdca0f"/><stop offset=".28" stop-color="#fdc70c"/><stop offset=".67" stop-color="#f3903f"/><stop offset=".89" stop-color="#ed683c"/><stop offset="1" stop-color="#e93e3a"/></linearGradient><linearGradient id="Orange__Yellow-2" x1="72.16" y1="-6.25" x2="72.16" y2="130.55" xlink:href="#Orange__Yellow"/><linearGradient id="Orange__Yellow-3" x1="110.58" y1="-6.25" x2="110.58" y2="130.55" xlink:href="#Orange__Yellow"/><linearGradient id="Orange__Yellow-4" x1="166.93" y1="-5.35" x2="166.93" y2="126.53" xlink:href="#Orange__Yellow"/><linearGradient id="Orange__Yellow-5" x1="179.8" y1="-5.96" x2="179.8" y2="129.77" xlink:href="#Orange__Yellow"/><linearGradient id="Orange__Yellow-6" x1="229.05" y1="-8.25" x2="229.05" y2="128.28" xlink:href="#Orange__Yellow"/><linearGradient id="Orange__Yellow-7" x1="262.54" y1="-8.55" x2="262.54" y2="128.79" xlink:href="#Orange__Yellow"/><linearGradient id="Orange__Yellow-8" x1="322.43" y1="-6.21" x2="322.43" y2="126.17" xlink:href="#Orange__Yellow"/><linearGradient id="Orange__Yellow-9" x1="362.66" y1="-8.56" x2="362.66" y2="128.75" xlink:href="#Orange__Yellow"/><linearGradient id="Orange__Yellow-10" x1="400.3" y1="-8.41" x2="400.3" y2="128.62" xlink:href="#Orange__Yellow"/><linearGradient id="Orange__Yellow-11" x1="440.26" y1="-8.42" x2="440.26" y2="128.3" xlink:href="#Orange__Yellow"/><linearGradient id="Orange__Yellow-12" x1="474.29" y1="-8.09" x2="474.29" y2="127.96" xlink:href="#Orange__Yellow"/><linearGradient id="Orange__Yellow-13" x1="506.17" y1="-8.56" x2="506.17" y2="128.8" xlink:href="#Orange__Yellow"/></defs><g id="Layer_1-2"><g><g><g><path class="cls-10" d="M49.9,62.73c-.56,0-1.16-.05-1.79-.14-2.52-.41-4.28-.63-5.27-.65h-.23c-1.05,0-2.87,.13-5.41,.38-.28,.03-.56,.05-.84,.05-2.65,0-4.67-1.45-5.69-4.08-.28-.72-.12-1.54,.42-2.1,.38-.4,.91-.62,1.44-.62,.21,0,.43,.03,.64,.11,.03,0,.06,.01,.1,.02,.03,0,.08,0,.14,0,.14,0,.3,0,.5-.02,.15,0,.28-.04,.4-.12h0s.16-.12,.4-.56c.21-.39,.36-.96,.43-1.66,.41-4.32,.71-9.11,.88-14.27-.07,.05-.13,.11-.2,.16-1.95,1.47-4.44,2.22-7.4,2.22-.21,0-.42,0-.63-.01-1.6-.04-3.43-.32-5.53-.86,.22,4.53,.51,8.62,.86,12.19,.11,.82,.29,1.55,.54,2.1,.22,.49,.37,.62,.38,.62,.18,.11,.37,.19,.52,.22,.08,.01,.16,.03,.23,.03,.25-.11,.53-.17,.8-.17,.38,0,.76,.11,1.1,.33,.8,.53,1.11,1.54,.75,2.42-.71,1.75-1.76,2.96-3.12,3.6-.84,.4-1.85,.6-3,.6-.57,0-1.19-.05-1.84-.15-2.5-.36-4.29-.57-5.31-.62-.12,0-.27,0-.42,0-1.08,0-2.82,.12-5.17,.35-.28,.03-.57,.05-.86,.05-2.65,0-4.64-1.43-5.61-4.03-.29-.77-.07-1.64,.54-2.19,.38-.33,.85-.51,1.33-.51,.23,0,.46,.04,.69,.12,.05,0,.09,0,.14,0,.14,0,.32,0,.53-.02,.2,0,.3-.05,.35-.09h0s.18-.14,.47-.63c.22-.38,.37-.92,.44-1.62,.51-5.3,.83-11.31,.95-17.87,.12-6.54-.08-12.72-.59-18.38-.07-.74-.25-1.4-.52-1.96-.35-.73-.64-1.06-.78-1.19-.29-.27-.58-.49-.87-.64-.37-.2-.52-.24-.52-.24-.05,0-.12-.02-.17-.03-.59-.05-1.12-.36-1.46-.85-.37-.54-.46-1.22-.24-1.83,.49-1.35,1.29-2.34,2.37-2.96,.76-.43,1.69-.64,2.85-.64,.48,0,1.01,.04,1.58,.11,1.89,.24,3.81,.36,5.69,.36,1.69,0,3.41-.1,5.09-.29,.74-.1,1.46-.15,2.1-.15,1.11,0,2.02,.16,2.76,.49,1.44,.63,2.36,1.93,2.59,3.65,.08,.57-.09,1.15-.47,1.59-.38,.43-.93,.68-1.51,.68-.19,0-.41-.01-.66-.04-.06,0-.24,.02-.59,.08-.24,.04-.44,.12-.62,.25h0s-.24,.18-.62,.94c-.29,.59-.5,1.39-.62,2.38-.32,3.62-.43,8.48-.34,14.39,.04,.31,.18,.83,1.58,1.19,.47,.12,.93,.18,1.35,.18,.83,0,1.58-.22,2.32-.69,.57-.36,1.04-.8,.6-2.26-.23-.68-.15-1.43,.24-2.06,.43-.7,1.16-1.13,2.17-1.28,.32-.04,.62-.06,.91-.06,1.65,0,3.29,.6,4.88,1.78,.03,.02,.06,.04,.08,.06-.07-3.88-.26-7.6-.58-11.1-.07-.79-.25-1.48-.52-2.04-.33-.68-.6-.97-.73-1.08-.37-.31-.73-.57-1.06-.78-.21-.13-.33-.19-.39-.21l-.32-.05c-.58-.1-1.09-.45-1.39-.95-.3-.51-.36-1.12-.17-1.68,.5-1.43,1.32-2.46,2.43-3.05,.73-.39,1.62-.58,2.72-.58,.49,0,1.03,.04,1.61,.12,1.9,.23,3.84,.36,5.73,.36,1.71,0,3.43-.1,5.11-.29,.74-.1,1.46-.15,2.1-.15,1.11,0,2.02,.16,2.76,.49,1.44,.64,2.36,1.93,2.59,3.65,.08,.57-.09,1.15-.47,1.59-.38,.43-.93,.68-1.51,.68-.2,0-.45-.01-.74-.05,.02,0-.14,.01-.53,.08-.23,.04-.42,.12-.61,.26h0s-.24,.19-.61,.95c-.3,.62-.51,1.44-.63,2.44-.36,5.43-.46,11.65-.27,18.38,.19,6.74,.54,12.78,1.05,17.96,.11,.88,.29,1.63,.54,2.17,.22,.49,.37,.62,.38,.62,.24,.14,.42,.2,.52,.22,.11,.02,.22,.03,.31,.03l.33-.06c.13-.03,.26-.04,.39-.04,.59,0,1.17,.27,1.55,.74,.47,.57,.58,1.36,.29,2.04-.71,1.67-1.74,2.86-3.07,3.52-.87,.43-1.91,.65-3.09,.65Z"/><path class="cls-9" d="M36.16,8.38c.4,0,.85,.03,1.34,.1,2.01,.25,4.01,.37,5.99,.37,1.79,0,3.57-.1,5.34-.3,.7-.09,1.32-.14,1.87-.14,.82,0,1.47,.11,1.96,.32,.8,.35,1.27,1.05,1.42,2.09-.14,0-.32-.01-.53-.04-.04,0-.09,0-.15,0-.22,0-.54,.04-.95,.11-.52,.09-.99,.29-1.42,.6-.42,.31-.84,.88-1.24,1.7-.4,.83-.67,1.85-.81,3.08-.38,5.62-.47,11.84-.28,18.67,.19,6.82,.54,12.86,1.06,18.1,.14,1.13,.38,2.07,.71,2.8,.33,.73,.71,1.23,1.13,1.49,.42,.26,.84,.42,1.24,.5,.24,.04,.46,.06,.66,.06,.13,0,.25,0,.37-.03l.35-.07c-.52,1.23-1.23,2.06-2.12,2.51-.59,.29-1.32,.44-2.19,.44-.46,0-.96-.04-1.49-.12-2.6-.42-4.44-.65-5.52-.67-.09,0-.18,0-.27,0-1.13,0-3,.13-5.61,.39-.22,.02-.44,.04-.64,.04-1.83,0-3.1-.93-3.82-2.8,.14,.05,.31,.08,.5,.11,.09,.01,.22,.02,.39,.02s.37,0,.6-.02c.47-.02,.91-.15,1.31-.39,.4-.24,.78-.67,1.13-1.31s.58-1.45,.67-2.44c.52-5.43,.85-11.5,.99-18.2s-.05-12.94-.57-18.7c-.1-1.04-.33-1.95-.71-2.73-.38-.78-.79-1.36-1.24-1.74-.45-.38-.89-.7-1.31-.96-.43-.26-.76-.41-.99-.46l-.43-.07c.33-.94,.83-1.59,1.49-1.95,.43-.23,1.02-.35,1.77-.35m-28.53,.22c.4,0,.84,.03,1.33,.09,1.99,.25,3.97,.37,5.95,.37,1.78,0,3.55-.1,5.32-.3,.7-.09,1.32-.14,1.87-.14,.82,0,1.47,.11,1.95,.32,.8,.35,1.27,1.05,1.42,2.09-.14,0-.31-.01-.5-.04-.04,0-.08,0-.13,0-.21,0-.53,.04-.96,.11-.54,.1-1.03,.3-1.45,.6-.42,.31-.84,.86-1.24,1.66-.4,.8-.67,1.82-.81,3.05-.33,3.78-.45,8.69-.35,14.73,.14,1.51,1.17,2.51,3.08,3.01,.64,.17,1.26,.25,1.86,.25,1.2,0,2.33-.33,3.38-.99,1.58-.99,2.07-2.5,1.45-4.53-.14-.42,.12-.68,.78-.78,.21-.03,.42-.04,.63-.04,1.21,0,2.44,.46,3.69,1.39,1.04,.76,1.63,1.61,1.77,2.55,.38,2.46-.3,4.33-2.02,5.63-1.61,1.21-3.67,1.82-6.2,1.82-.19,0-.37,0-.57,0-2.08-.05-4.65-.57-7.72-1.56,.24,5.71,.57,10.74,.99,15.09,.14,1.09,.38,2,.71,2.73,.33,.73,.71,1.23,1.13,1.49,.42,.26,.84,.42,1.24,.5,.24,.04,.46,.06,.66,.06,.13,0,.25,0,.37-.03,.19-.05,.31-.09,.35-.14-.52,1.28-1.23,2.12-2.12,2.55-.58,.27-1.29,.41-2.14,.41-.47,0-.99-.04-1.54-.13-2.6-.38-4.44-.59-5.52-.64-.15,0-.32,0-.51,0-1.14,0-2.93,.12-5.37,.36-.23,.02-.45,.04-.66,.04-1.81,0-3.06-.91-3.73-2.73,.09,.05,.24,.08,.43,.11,.09,.01,.23,.02,.4,.02s.38,0,.63-.02c.5-.02,.93-.15,1.31-.39,.38-.24,.75-.67,1.13-1.31,.38-.64,.61-1.45,.71-2.44,.52-5.38,.84-11.39,.96-18.03,.12-6.63-.08-12.83-.6-18.59-.1-.99-.33-1.88-.71-2.66-.38-.78-.78-1.37-1.2-1.77-.42-.4-.86-.72-1.31-.96-.45-.24-.79-.38-1.03-.42-.24-.05-.38-.07-.42-.07,.33-.9,.83-1.53,1.49-1.91,.44-.25,1.06-.38,1.86-.38m28.53-4.22c-1.43,0-2.63,.27-3.66,.82-1.07,.57-2.5,1.74-3.34,4.06-.56-1.83-1.77-3.22-3.5-3.98-1.01-.44-2.17-.66-3.57-.66-.72,0-1.5,.06-2.36,.17-1.6,.18-3.22,.27-4.82,.27-1.8,0-3.63-.12-5.45-.34-.64-.08-1.26-.12-1.83-.12-1.52,0-2.78,.3-3.84,.9-1.04,.59-2.44,1.77-3.26,4.01-.45,1.23-.27,2.6,.47,3.67,.64,.92,1.63,1.52,2.72,1.67,.04,.02,.09,.04,.15,.08,.07,.04,.22,.13,.42,.32h0s.14,.17,.35,.61c.17,.34,.28,.78,.33,1.29,.5,5.56,.7,11.68,.58,18.14-.12,6.5-.43,12.46-.94,17.71-.02,.19-.04,.34-.07,.46-.18-.03-.37-.04-.55-.04-.96,0-1.91,.35-2.66,1.02-1.23,1.1-1.66,2.83-1.09,4.38,1.26,3.39,3.99,5.33,7.48,5.33,.35,0,.72-.02,1.09-.06,2.81-.28,4.24-.34,4.94-.34,.13,0,.24,0,.34,0,.65,.03,2.07,.16,5.12,.6,.73,.11,1.45,.17,2.12,.17,1.44,0,2.74-.27,3.85-.79,1.67-.79,2.98-2.18,3.88-4.11,1.4,3.03,4.02,4.75,7.29,4.75,.35,0,.71-.02,1.07-.06,3.05-.3,4.5-.37,5.18-.37h.18c.51,.01,1.82,.11,4.97,.62,.78,.12,1.48,.17,2.14,.17,1.49,0,2.83-.29,3.98-.86,1.77-.89,3.12-2.41,4.02-4.53,.58-1.36,.35-2.94-.58-4.08-.77-.94-1.91-1.47-3.1-1.47-.08,0-.17,0-.25,0-.08-.27-.17-.66-.24-1.2-.51-5.12-.86-11.09-1.04-17.76-.18-6.63-.09-12.74,.27-18.18,.11-.91,.29-1.43,.43-1.71,.03-.05,.05-.1,.07-.14,.21,.02,.42,.03,.61,.03,1.16,0,2.25-.5,3.01-1.37,.76-.87,1.11-2.03,.95-3.17-.33-2.43-1.67-4.28-3.76-5.21-1.01-.44-2.18-.66-3.57-.66-.72,0-1.49,.06-2.36,.17-1.6,.18-3.23,.27-4.85,.27-1.81,0-3.67-.12-5.5-.34-.63-.08-1.26-.13-1.83-.13h0Zm-10.7,10.65c1.16,0,2.25-.5,3.01-1.37,.35-.4,.61-.86,.77-1.35,.06,.14,.13,.27,.21,.4,.6,1.01,1.61,1.71,2.77,1.91h0c.23,.14,.48,.33,.76,.56,.04,.05,.13,.19,.27,.47,.16,.34,.27,.79,.32,1.35,.22,2.41,.38,4.93,.47,7.54-.94-.31-1.91-.47-2.88-.47-.38,0-.77,.03-1.15,.08-2.07,.3-3.11,1.37-3.64,2.21-.68,1.1-.84,2.45-.44,3.71,0,.03,.02,.06,.03,.09-.34,.18-.67,.26-1.04,.26-.26,0-.55-.04-.85-.12-.03,0-.07-.02-.1-.03-.07-5.47,.05-9.99,.35-13.44,.12-.96,.31-1.45,.41-1.66,.03-.06,.06-.11,.08-.15,.22,.02,.43,.03,.63,.03h0Zm2.97,28.41c2,0,3.83-.31,5.46-.91-.17,3.78-.42,7.34-.73,10.62-.02,.18-.04,.34-.06,.46-.19-.03-.37-.04-.56-.04-1.07,0-2.12,.43-2.89,1.23-.23,.24-.42,.5-.58,.78-.3-.53-.73-.99-1.27-1.35-.67-.44-1.44-.66-2.2-.66-.09,0-.18,0-.28,0-.07-.26-.15-.61-.21-1.07-.28-2.83-.51-5.98-.71-9.42,1.21,.21,2.33,.32,3.37,.35,.19,0,.42,.01,.65,.01h0Z"/></g><g><path class="cls-5" d="M71.58,62.32c-5.12-.16-9.38-2.08-12.65-5.73-3.2-3.56-4.98-7.87-5.29-12.79-.1-2.26,.05-4.46,.46-6.59,.41-2.15,1.12-4.26,2.12-6.28,1.04-2.1,2.53-3.99,4.43-5.6,1.91-1.62,4.18-2.81,6.76-3.55,1.46-.47,3.03-.72,4.61-.72,.15,0,.31,0,.46,0,5.1,.11,9.38,1.96,12.7,5.52,3.26,3.49,5.09,7.76,5.46,12.69,.15,2.34,.02,4.64-.38,6.85-.41,2.23-1.15,4.42-2.2,6.49-1.1,2.16-2.68,4.08-4.72,5.69-2.04,1.61-4.45,2.77-7.17,3.45-1.29,.37-2.68,.56-4.08,.56-.17,0-.34,0-.51,0Zm-.45-8.27c.31,.06,.65,.09,1.02,.09,1.26,0,2.3-.52,3.27-1.64,1.14-1.32,1.99-2.99,2.52-4.95,.56-2.09,.85-4.39,.85-6.84,0-2.73-.45-5.13-1.35-7.16-.83-1.86-1.89-3.12-3.27-3.86-.6-.26-1.24-.39-1.97-.39-.16,0-.32,0-.48,.02-.63,.03-2.37,.1-4.14,3.56-1.38,2.69-2.06,5.87-2.01,9.44,.04,3.13,.63,5.85,1.74,8.1,.98,1.99,2.23,3.18,3.81,3.65Z"/><path class="cls-9" d="M72.02,23.06c.13,0,.27,0,.4,0,4.58,.1,8.35,1.72,11.3,4.89,2.95,3.16,4.59,6.99,4.92,11.47,.14,2.17,.02,4.29-.35,6.34-.38,2.05-1.05,4.04-2.02,5.95-.97,1.91-2.36,3.59-4.18,5.03-1.82,1.44-3.96,2.47-6.41,3.08-1.18,.34-2.38,.5-3.59,.5-.15,0-.3,0-.45,0-4.58-.14-8.32-1.83-11.23-5.06-2.9-3.23-4.5-7.09-4.78-11.58-.1-2.08,.05-4.11,.43-6.09,.38-1.98,1.03-3.91,1.95-5.77,.92-1.86,2.23-3.52,3.93-4.96,1.7-1.44,3.71-2.49,6.02-3.15,1.33-.43,2.69-.64,4.06-.64m.12,33.09c1.84,0,3.44-.78,4.78-2.34,1.35-1.56,2.33-3.47,2.94-5.74,.61-2.27,.92-4.72,.92-7.37,0-3.02-.51-5.68-1.52-7.97-1.02-2.29-2.42-3.91-4.21-4.85-.87-.39-1.82-.59-2.85-.59-.2,0-.41,0-.62,.02-2.31,.1-4.24,1.64-5.77,4.64-1.54,3-2.28,6.46-2.23,10.38,.05,3.45,.7,6.44,1.95,8.96,1.25,2.53,2.96,4.1,5.14,4.71,.47,.1,.97,.14,1.49,.14m-.12-37.09c-1.76,0-3.52,.27-5.22,.82-2.83,.82-5.33,2.14-7.44,3.93-2.11,1.79-3.77,3.89-4.93,6.24-1.08,2.18-1.85,4.47-2.29,6.8-.44,2.28-.6,4.64-.49,7.02v.07c.34,5.39,2.29,10.1,5.8,14,3.65,4.06,8.39,6.21,14.08,6.39,.18,0,.38,0,.57,0,1.56,0,3.11-.21,4.62-.64,2.97-.75,5.62-2.03,7.86-3.81,2.27-1.8,4.04-3.94,5.26-6.36,1.14-2.25,1.94-4.61,2.38-7.03,.44-2.37,.57-4.83,.41-7.32-.4-5.43-2.41-10.11-5.99-13.94-3.7-3.97-8.46-6.04-14.14-6.16-.14,0-.31,0-.49,0h0Zm-.43,33.05c-.66-.22-1.58-.76-2.49-2.59-.98-1.98-1.49-4.41-1.53-7.24-.04-3.24,.56-6.1,1.79-8.5,.46-.9,1.39-2.42,2.38-2.47,.04,0,.09,0,.13,0,.11,0,.22-.01,.33-.01,.41,0,.77,.06,1.09,.19,.93,.53,1.69,1.47,2.31,2.87,.78,1.77,1.18,3.9,1.18,6.35,0,2.28-.26,4.4-.78,6.32-.46,1.69-1.15,3.06-2.11,4.17-.72,.84-1.27,.95-1.75,.95-.2,0-.38-.01-.55-.04h0Z"/></g><g><path class="cls-8" d="M110,62.32c-5.12-.16-9.38-2.08-12.65-5.73-3.2-3.56-4.98-7.87-5.29-12.79-.1-2.26,.05-4.47,.46-6.59,.41-2.15,1.12-4.26,2.12-6.28,1.04-2.1,2.53-3.99,4.43-5.6,1.91-1.62,4.18-2.81,6.76-3.55,1.46-.47,3.03-.72,4.61-.72,.15,0,.31,0,.46,0,5.1,.11,9.38,1.96,12.7,5.52,3.26,3.49,5.09,7.76,5.46,12.69,.15,2.34,.02,4.64-.38,6.85-.41,2.23-1.15,4.41-2.2,6.49-1.1,2.16-2.69,4.08-4.72,5.69-2.04,1.61-4.45,2.77-7.17,3.45-1.29,.37-2.68,.56-4.08,.56-.17,0-.34,0-.51,0Zm-.45-8.27c.31,.06,.65,.09,1.02,.09,1.26,0,2.3-.52,3.27-1.64,1.14-1.32,1.99-2.99,2.52-4.95,.57-2.09,.85-4.39,.85-6.84,0-2.72-.46-5.13-1.35-7.16-.82-1.86-1.89-3.12-3.26-3.86-.6-.26-1.24-.39-1.97-.39-.16,0-.32,0-.48,.02-.63,.03-2.37,.1-4.14,3.56-1.38,2.69-2.06,5.87-2.01,9.44,.04,3.13,.63,5.85,1.74,8.1,.98,1.99,2.23,3.18,3.81,3.65Z"/><path class="cls-9" d="M110.45,23.06c.13,0,.27,0,.4,0,4.58,.1,8.35,1.72,11.3,4.89,2.95,3.16,4.59,6.99,4.92,11.47,.14,2.17,.02,4.29-.35,6.34-.38,2.05-1.05,4.04-2.02,5.95-.97,1.91-2.36,3.59-4.18,5.03-1.82,1.44-3.96,2.47-6.41,3.08-1.18,.34-2.38,.5-3.59,.5-.15,0-.3,0-.45,0-4.58-.14-8.32-1.83-11.23-5.06-2.9-3.23-4.5-7.09-4.78-11.58-.1-2.08,.05-4.11,.43-6.09,.38-1.98,1.03-3.91,1.95-5.77,.92-1.86,2.23-3.52,3.93-4.96s3.71-2.49,6.02-3.15c1.33-.43,2.69-.64,4.06-.64m.12,33.09c1.84,0,3.43-.78,4.78-2.34,1.35-1.56,2.33-3.47,2.94-5.74,.61-2.27,.92-4.72,.92-7.37,0-3.02-.51-5.68-1.52-7.97-1.02-2.29-2.42-3.91-4.21-4.85-.87-.39-1.82-.59-2.85-.59-.2,0-.41,0-.62,.02-2.31,.1-4.24,1.64-5.77,4.64-1.54,3-2.28,6.46-2.23,10.38,.05,3.45,.7,6.44,1.95,8.96,1.25,2.53,2.96,4.1,5.13,4.71,.47,.1,.97,.14,1.49,.14m-.12-37.09c-1.76,0-3.52,.27-5.22,.82-2.83,.82-5.33,2.14-7.44,3.93-2.11,1.79-3.77,3.89-4.93,6.24-1.08,2.18-1.85,4.47-2.29,6.8-.44,2.28-.6,4.64-.49,7.02v.07c.34,5.39,2.29,10.1,5.8,14,3.65,4.06,8.39,6.21,14.08,6.39,.18,0,.38,0,.57,0,1.56,0,3.11-.21,4.62-.64,2.97-.75,5.62-2.03,7.86-3.81,2.27-1.8,4.04-3.93,5.26-6.36,1.14-2.25,1.94-4.62,2.38-7.03,.44-2.37,.57-4.83,.41-7.32-.4-5.43-2.41-10.11-5.99-13.94-3.7-3.97-8.46-6.04-14.14-6.16-.14,0-.31,0-.49,0h0Zm-.43,33.05c-.66-.22-1.58-.76-2.49-2.59-.98-1.98-1.5-4.41-1.53-7.24-.04-3.24,.56-6.1,1.79-8.5,.46-.9,1.39-2.42,2.38-2.47,.04,0,.09,0,.13,0,.11,0,.22-.01,.33-.01,.41,0,.77,.06,1.09,.19,.93,.53,1.69,1.47,2.31,2.87,.78,1.77,1.18,3.9,1.18,6.35,0,2.28-.26,4.4-.78,6.32-.46,1.69-1.15,3.06-2.11,4.17-.72,.84-1.27,.95-1.75,.95-.2,0-.38-.01-.55-.04h0Z"/></g><g><path class="cls-6" d="M194.82,85.6c-.65,0-1.33-.03-2.01-.09-3.6-.32-7.37-1.26-11.19-2.79-3.79-1.51-7.49-3.54-11-6.03-3.6-2.51-7.21-5.25-10.7-8.13-3.52-2.9-7.2-6.35-10.94-10.25-3.03-3.16-5.53-6.2-7.46-9.06,.12,1.85,.27,3.59,.44,5.2,.07,.84,.25,1.28,.38,1.42,.01,.01,.02,.03,.04,.04l.35-.04c.08,0,.15-.01,.22-.01,.62,0,1.22,.29,1.6,.8,.42,.56,.52,1.31,.25,1.96-.52,1.26-1.32,2.16-2.37,2.69-.7,.35-1.53,.53-2.48,.53-.38,0-.79-.03-1.22-.08-2.07-.28-3.04-.34-3.49-.34-.68,0-1.95,.09-3.77,.27-.19,.03-.44,.04-.67,.04-1.2,0-3.37-.43-4.45-3.31-.23-.61-.14-1.3,.23-1.84,.37-.54,.99-.86,1.64-.86,.19,0,.39,.02,.6,.05,.08,0,.15,0,.24-.01,.02-.04,.05-.08,.09-.14,.07-.12,.16-.36,.19-.8,.38-3.66,.61-7.75,.7-12.23,.09-4.44-.05-8.62-.42-12.44-.03-.46-.12-.82-.27-1.14-.22-.46-.36-.59-.36-.59-.14-.13-.3-.24-.46-.32-.09-.04-.17-.08-.23-.11-.6-.04-1.15-.35-1.5-.84-.37-.53-.47-1.21-.25-1.83,.41-1.14,1.07-1.96,1.98-2.44,.58-.31,1.27-.45,2.09-.45,.39,0,.82,.03,1.28,.1,.87,.11,1.93,.16,3.11,.16,1.61,0,3.48-.1,5.57-.31,.22-.03,.43-.05,.63-.05,.92,0,1.75,.3,2.41,.88,.82,.72,1.25,1.71,1.25,2.85s-.9,2-2,2c-.15,0-.32-.01-.52-.04-.04,0-.11,.02-.18,.03-.08,.02-.16,.05-.24,.1h0s-.07,.11-.19,.36c-.11,.24-.26,.68-.35,1.45-.14,1.52-.23,3.4-.27,5.58,.8-.61,1.49-1.14,2.07-1.6,.78-.62,1.73-1.42,2.83-2.38,1.03-.91,1.91-1.75,2.6-2.52,.14-.19,.22-.33,.27-.44-.04-.02-.08-.05-.15-.07-.04-.02-1.1-.55-1.1-.55-.92-.46-1.34-1.54-.97-2.5,.41-1.08,1.07-1.86,1.96-2.33,.62-.33,1.38-.48,2.31-.48,.3,0,.62,.02,.97,.05,.96,.12,2.02,.17,3.2,.17,1.62,0,3.51-.11,5.62-.31,.19-.01,.31-.02,.44-.02,1.33,0,2.17,.53,2.65,.97,.53,.5,1.17,1.39,1.17,2.81,0,.95-.67,1.77-1.6,1.96-.2,.04-.49,.12-.86,.22-.04,.01-.47,.14-1.97,.94-.98,.52-1.88,1.19-2.68,1.99-2.2,2.15-4.7,4.46-7.46,6.89-1.96,1.72-3.48,3.08-4.56,4.07,.54,.84,1.32,1.48,2.36,1.96,1.94,.89,4.07,2.31,6.54,4.35,2.35,1.94,4.4,3.8,6.1,5.52,1.65,1.68,4.12,4.25,7.33,7.65,3.19,3.38,5.61,5.89,7.18,7.47,3.84,3.93,8.66,6.6,14.35,7.97,2.07,.5,3.89,.76,5.43,.76,1.75,0,3.14-.33,4.12-.98,.46-.32,1.29-.88,.27-3.18-.29-.65-.21-1.41,.21-1.99,.38-.52,.98-.82,1.62-.82,.07,0,.14,0,.21,.01,2.36,.25,4.11,1.22,5.21,2.86,.04,.05,.07,.11,.1,.16,.48,.89,.73,1.87,.77,2.94,.04,1.2-.4,2.45-1.29,3.7-.82,1.15-1.99,2.13-3.48,2.94-2.37,1.27-5.09,1.92-8.07,1.92Z"/><path class="cls-9" d="M141.2,24.31c.44,0,.8,.13,1.1,.39,.38,.33,.57,.78,.57,1.35-.09,0-.21-.01-.35-.04-.04,0-.08,0-.12,0-.15,0-.35,.03-.62,.08-.35,.07-.69,.21-.99,.42-.31,.21-.59,.59-.85,1.13-.26,.54-.44,1.24-.53,2.09-.24,2.5-.33,5.79-.28,9.85,.28-.24,1.04-.82,2.27-1.74,1.23-.92,2.24-1.7,3.05-2.34,.8-.64,1.77-1.45,2.9-2.44,1.13-.99,2.08-1.91,2.83-2.76,.71-.94,.94-1.71,.71-2.3-.24-.59-.68-1.03-1.35-1.31l-.99-.5c.24-.61,.58-1.04,1.03-1.28,.32-.17,.78-.25,1.38-.25,.24,0,.5,.01,.78,.04,.99,.12,2.12,.18,3.39,.18,1.69,0,3.63-.11,5.82-.32,.08,0,.16,0,.24,0,.55,0,.97,.14,1.28,.43,.35,.33,.53,.78,.53,1.35-.24,.05-.57,.13-.99,.25-.42,.12-1.22,.48-2.37,1.1-1.16,.61-2.21,1.39-3.15,2.34-2.17,2.12-4.63,4.39-7.37,6.8-2.74,2.41-4.63,4.11-5.67,5.1,.66,1.94,1.98,3.35,3.97,4.25,1.75,.8,3.78,2.16,6.09,4.07,2.31,1.91,4.3,3.71,5.95,5.38,1.65,1.68,4.08,4.21,7.3,7.62,3.21,3.4,5.62,5.9,7.22,7.51,4.11,4.2,9.21,7.04,15.3,8.5,2.23,.54,4.19,.81,5.9,.81,2.16,0,3.9-.44,5.23-1.31,1.79-1.23,2.12-3.12,.99-5.67,1.75,.19,3,.85,3.75,1.98,.33,.61,.51,1.3,.53,2.05,.02,.75-.28,1.58-.92,2.48-.64,.9-1.57,1.68-2.8,2.34-2.08,1.12-4.46,1.68-7.13,1.68-.6,0-1.21-.03-1.84-.08-3.42-.31-6.97-1.19-10.62-2.66-3.66-1.46-7.19-3.4-10.59-5.81-3.59-2.5-7.12-5.18-10.59-8.04-3.47-2.86-7.06-6.22-10.77-10.09-3.71-3.87-6.55-7.48-8.54-10.84-.76-1.32-1.65-2.53-2.69-3.61,.14,4.58,.4,8.64,.78,12.18,.09,1.18,.4,2.04,.92,2.59,.44,.46,.85,.69,1.22,.69,.07,0,.13,0,.19-.02l.64-.07c-.33,.8-.8,1.36-1.42,1.67-.42,.21-.95,.31-1.59,.31-.3,0-.62-.02-.96-.07-1.75-.24-3-.35-3.75-.35s-2.08,.09-3.97,.28c-.16,.02-.32,.03-.47,.03-1.21,0-2.07-.67-2.57-2.01,.09,0,.2,.01,.32,.04,.06,.01,.14,.02,.26,.02s.25,0,.42-.02c.33-.02,.63-.11,.89-.25,.26-.14,.52-.44,.78-.88,.26-.45,.41-1,.46-1.67,.38-3.68,.61-7.79,.71-12.33,.09-4.53-.05-8.76-.43-12.68-.05-.66-.2-1.26-.46-1.81-.26-.54-.53-.94-.81-1.2-.28-.26-.59-.47-.92-.64-.33-.17-.57-.26-.71-.28-.14-.02-.24-.04-.28-.04,.24-.66,.58-1.11,1.03-1.35,.28-.15,.67-.22,1.16-.22,.3,0,.63,.03,1,.08,.99,.12,2.13,.18,3.4,.18,1.69,0,3.63-.11,5.81-.32,.14-.02,.27-.03,.39-.03m0-4c-.28,0-.57,.02-.87,.06-2.01,.2-3.8,.3-5.34,.3-1.09,0-2.06-.05-2.88-.15-.55-.08-1.04-.11-1.52-.11-1.15,0-2.16,.23-3.02,.68-.94,.5-2.21,1.51-2.93,3.54-.44,1.23-.25,2.59,.5,3.65,.58,.82,1.44,1.39,2.4,1.6,.04,.08,.06,.2,.07,.35,0,.03,0,.07,0,.1,.36,3.74,.5,7.85,.41,12.21-.09,4.11-.29,7.89-.61,11.25-1,.2-1.9,.78-2.5,1.64-.75,1.08-.92,2.45-.46,3.68,1.08,2.89,3.44,4.61,6.32,4.61,.3,0,.61-.02,.92-.06,2.26-.22,3.18-.26,3.52-.26,.32,0,1.17,.04,3.22,.32,.53,.07,1.03,.1,1.5,.1,1.26,0,2.4-.25,3.38-.74,1.03-.51,2.44-1.58,3.32-3.72,.06-.15,.11-.3,.15-.45,.24,.26,.48,.51,.73,.77,3.79,3.96,7.53,7.47,11.11,10.41,3.54,2.91,7.19,5.68,10.84,8.23,3.62,2.56,7.46,4.67,11.39,6.24,4,1.6,7.95,2.58,11.75,2.93,.74,.07,1.48,.1,2.19,.1,3.32,0,6.35-.72,9.02-2.15,1.77-.96,3.17-2.15,4.17-3.54,1.15-1.62,1.71-3.28,1.66-4.92-.04-1.38-.38-2.67-1.01-3.83-.06-.11-.12-.22-.2-.33-.99-1.49-2.95-3.34-6.66-3.74-.14-.02-.29-.02-.43-.02-1.27,0-2.47,.6-3.23,1.64-.84,1.16-1,2.67-.42,3.98,.17,.38,.25,.64,.28,.81-.65,.35-1.62,.54-2.84,.54-1.38,0-3.04-.23-4.95-.7-5.4-1.3-9.78-3.72-13.38-7.41-1.6-1.6-4-4.1-7.18-7.46-3.22-3.4-5.69-5.99-7.35-7.68-1.75-1.77-3.85-3.67-6.25-5.66-2.6-2.15-4.88-3.66-6.97-4.62-.09-.04-.17-.08-.25-.12,.83-.74,1.81-1.61,2.92-2.59,2.79-2.45,5.32-4.79,7.52-6.94,.7-.7,1.42-1.23,2.23-1.66,1.09-.58,1.52-.75,1.62-.79,.42-.11,.6-.16,.67-.17,1.87-.38,3.21-2.02,3.21-3.92,0-1.67-.64-3.18-1.8-4.27-.74-.69-2.03-1.51-4.01-1.51-.17,0-.34,0-.52,.02-.04,0-.07,0-.11,0-2.04,.2-3.87,.3-5.42,.3-1.1,0-2.08-.05-2.91-.15-.04,0-.07,0-.11-.01-.41-.04-.8-.06-1.16-.06-1.27,0-2.33,.23-3.24,.71-.54,.28-1.19,.74-1.78,1.45-.27-.41-.6-.79-.98-1.12-1.04-.91-2.33-1.38-3.74-1.38h0Zm2.19,9.7c.86-.11,1.64-.5,2.24-1.07,.04,.05,.09,.09,.14,.14-.33,.31-.69,.64-1.07,.97-.5,.44-.97,.84-1.41,1.21,.03-.39,.06-.77,.09-1.12,0-.04,.01-.09,.02-.13h0Z"/></g><g><path class="cls-4" d="M179.89,64.89c-2.08,0-4.02-.32-5.75-.95-2.07-.75-3.93-1.74-5.54-2.93-1.71-1.27-2.97-2.7-3.75-4.25-.9-1.79-1.05-3.47-.47-5.01,.35-1.05,.91-2,1.63-2.76,.75-.78,1.49-1.29,2.27-1.57,.66-.23,1.36-.36,2.1-.39,.31-.01,.57-.02,.78-.02,.28,0,.5,.01,.66,.03,.46,.05,.81,.15,1.12,.3,.9,.44,1.34,1.48,1.01,2.44h0s0,.06,0,.14c0,.05-.02,.31,0,1.2,.02,.59,.09,1.16,.2,1.7,.09,.43,.32,.93,.66,1.48,.33,.52,.73,.94,1.23,1.28,.35,.24,1.05,.59,2.35,.87,.72,.16,1.56,.24,2.47,.24,.48,0,.98-.02,1.51-.06,1.56-.16,1.56-.66,1.56-1.19,.04-1.84-1.39-4.04-4.13-6.42-.68-.63-1.38-1.18-2.13-1.69-1.9-1.31-3.51-2.5-4.81-3.53-1.35-1.08-2.69-2.34-3.99-3.76-1.39-1.52-2.38-3.01-2.93-4.44-.6-1.54-.76-3.22-.46-4.99,.3-1.78,1.17-3.51,2.58-5.16,.83-1,1.92-1.9,3.2-2.65,1.21-.71,2.23-1.2,3.12-1.51,.88-.3,1.93-.54,3.12-.69,1.61-.21,1.87-.23,2.07-.23h.78c.73,0,1.4,.39,1.75,1.03,.27,.49,.67,.85,1.22,1.12,.7,.34,1.39,.53,2.14,.58,.45,.03,.89,.05,1.33,.05s.86-.02,1.29-.05c1.03-.08,1.62-.19,1.93-.27,.06-.01,.12-.03,.18-.04l.92-.14c.1-.02,.2-.02,.3-.02,.58,0,1.14,.26,1.53,.71,.45,.53,.59,1.26,.37,1.92-.09,.26-.22,.56-.43,.93-.13,.24-.38,.64-1.11,1.62-.62,.82-1.35,1.54-2.17,2.13-.85,.6-1.96,1.11-3.41,1.56-1.27,.39-2.65,.59-4.08,.59-.18,0-.36,0-.54,0-1.44-.06-2.86-.46-4.26-1.18-.18-.09-.35-.18-.51-.27,.48,.47,1.08,.98,1.77,1.52,.8,.62,1.57,1.18,2.28,1.67,.75,.51,1.54,1.05,2.38,1.61,2.57,1.6,4.97,3.51,7.08,5.64,2.23,2.25,3.71,4.55,4.42,6.84,2.14,6.59,.21,11.68-5.59,14.69-2.44,1.3-5.05,2.05-7.73,2.24-.51,.04-1.02,.05-1.51,.05Z"/><path class="cls-9" d="M180.34,22.36c.47,.85,1.17,1.5,2.09,1.95,.92,.45,1.88,.71,2.87,.78,.5,.04,.99,.05,1.47,.05s.96-.02,1.43-.05c.94-.07,1.7-.18,2.27-.32l.92-.14c-.05,.14-.14,.34-.28,.6s-.46,.72-.96,1.38c-.5,.66-1.07,1.23-1.74,1.7-.66,.47-1.61,.9-2.83,1.27-1.09,.34-2.25,.5-3.49,.5-.16,0-.31,0-.47,0-1.13-.05-2.27-.37-3.4-.96-1.13-.59-2.03-1.09-2.69-1.49-.42-.25-.77-.38-1.05-.38-.17,0-.31,.04-.43,.13-.42,.33-.66,.74-.71,1.24-.05,.5,.12,1.03,.5,1.59s.85,1.13,1.42,1.7,1.26,1.17,2.09,1.81c.83,.64,1.62,1.22,2.37,1.74,.75,.52,1.56,1.06,2.41,1.63,2.5,1.56,4.76,3.35,6.76,5.38,2.01,2.03,3.32,4.04,3.93,6.02,1.84,5.67,.31,9.77-4.6,12.32-2.22,1.18-4.53,1.85-6.94,2.02-.47,.03-.92,.05-1.37,.05-1.86,0-3.55-.28-5.07-.83-1.89-.69-3.57-1.57-5.03-2.66-1.46-1.09-2.51-2.27-3.15-3.54-.64-1.27-.77-2.41-.39-3.4,.28-.85,.68-1.55,1.2-2.09,.52-.54,1.02-.9,1.49-1.06,.47-.17,.98-.26,1.52-.28,.27-.01,.5-.02,.69-.02s.34,0,.44,.02c.21,.02,.37,.06,.46,.11-.05,.14-.08,.34-.11,.6-.02,.26-.02,.74,0,1.45,.02,.71,.11,1.39,.25,2.05,.14,.66,.45,1.37,.92,2.12,.47,.76,1.07,1.38,1.81,1.88,.73,.5,1.75,.88,3.05,1.17,.87,.19,1.83,.28,2.9,.28,.53,0,1.09-.02,1.67-.07,2.27-.24,3.4-1.3,3.4-3.19,.05-2.46-1.56-5.1-4.82-7.93-.71-.66-1.49-1.27-2.34-1.84-1.84-1.27-3.4-2.42-4.68-3.43-1.27-1.02-2.53-2.2-3.75-3.54-1.23-1.35-2.08-2.62-2.55-3.83-.47-1.2-.59-2.51-.35-3.93,.24-1.42,.94-2.81,2.12-4.18,.71-.85,1.61-1.59,2.69-2.23,1.08-.64,2.01-1.08,2.76-1.35,.75-.26,1.67-.46,2.73-.6s1.66-.21,1.81-.21h.78m0-4h-.78c-.32,0-.66,.02-2.33,.25-1.34,.18-2.48,.43-3.5,.78-1.03,.35-2.16,.9-3.49,1.68-1.47,.86-2.72,1.9-3.72,3.09-1.65,1.92-2.66,3.98-3.02,6.11-.36,2.13-.16,4.17,.58,6.05,.66,1.68,1.74,3.33,3.32,5.06,1.23,1.34,2.5,2.56,3.79,3.63h-.04c-.24,0-.52,0-.86,.02-.94,.04-1.84,.21-2.67,.5-1.09,.38-2.09,1.06-3.05,2.07-.92,.96-1.62,2.14-2.09,3.52-.52,1.43-.83,3.7,.58,6.53,.92,1.84,2.38,3.51,4.35,4.97,1.76,1.31,3.8,2.39,6.05,3.2,1.96,.71,4.12,1.07,6.44,1.07,.54,0,1.09-.02,1.65-.06,2.96-.2,5.84-1.04,8.55-2.48,6.65-3.45,8.98-9.52,6.54-17.07-.81-2.58-2.45-5.15-4.9-7.62-2.13-2.15-4.54-4.09-7.16-5.76,.76-.11,1.49-.28,2.2-.5,1.65-.51,2.95-1.11,3.98-1.84,.99-.71,1.87-1.57,2.61-2.56,.64-.85,1.02-1.41,1.27-1.86,.26-.48,.44-.88,.57-1.26,.44-1.32,.16-2.78-.74-3.84-.77-.91-1.89-1.42-3.05-1.42-.2,0-.41,.02-.61,.05l-.92,.14c-.12,.02-.24,.04-.36,.07-.19,.05-.66,.14-1.6,.21-.37,.03-.75,.04-1.13,.04s-.79-.01-1.19-.04c-.48-.03-.94-.16-1.4-.38-.23-.11-.3-.21-.35-.29-.71-1.27-2.04-2.06-3.5-2.06h0Zm-4.41,31.76c.13-.5,.15-1.01,.09-1.51,.16,.11,.32,.22,.49,.34l.05,.04c.67,.45,1.28,.93,1.83,1.44,.03,.03,.07,.06,.1,.09,2.27,1.97,3.05,3.35,3.31,4.14-.33,.02-.64,.03-.94,.03-.77,0-1.46-.06-2.05-.19-1.11-.24-1.55-.5-1.66-.57-.27-.18-.48-.4-.65-.68-.31-.5-.39-.77-.4-.84-.09-.43-.15-.88-.16-1.35-.02-.58-.02-.84-.01-.94h0Z"/></g></g><g><path class="cls-11" d="M228.47,60.96c-3.51-.11-6.68-1.09-9.43-2.91-2.72-1.8-4.86-4.13-6.34-6.93-1.46-2.76-2.3-5.81-2.48-9.05-.14-2.25,0-4.51,.44-6.7,.43-2.19,1.15-4.34,2.13-6.38,1.04-2.15,2.56-4.07,4.52-5.71,1.96-1.64,4.27-2.85,6.86-3.59,1.56-.51,3.22-.78,4.86-.78h.33c3.49,.08,6.67,1.02,9.46,2.79,2.76,1.76,4.93,4.06,6.43,6.83,1.48,2.72,2.36,5.74,2.61,8.97,.14,2.39,0,4.72-.4,6.96-.42,2.28-1.17,4.5-2.23,6.62-1.11,2.2-2.72,4.15-4.79,5.79-2.06,1.64-4.51,2.82-7.28,3.52-1.39,.37-2.85,.57-4.3,.57h-.39Zm-.53-8.35c.34,.06,.7,.1,1.08,.1,1.61-.02,2.88-.78,3.97-2.39,1.25-1.85,2.11-4.25,2.57-7.15,0-.02-.01-.03-.02-.04-.06-.07-.15-.15-.38-.21-.49-.13-.94-.22-1.33-.28-.23-.03-.47-.05-.71-.05-.12,0-.24,0-.36,.01-.65,.03-.9,.16-.98,.22-.11,.07-.13,.12-.13,.12-.07,.32-.11,.65-.11,.97,0,.35,.04,.54,.07,.62,.02,.06,.03,.12,.04,.18l.1,.5c.12,.61-.05,1.24-.46,1.71-.38,.44-.93,.68-1.5,.68-.04,0-.09,0-.13,0-1.35-.09-2.52-.46-3.49-1.1-1.04-.69-1.76-1.55-2.15-2.57-.32-.85-.48-1.73-.45-2.61,.03-.97,.27-1.83,.72-2.57,.94-1.48,2.3-2.57,4.04-3.26,1.5-.59,3.01-.89,4.49-.89h.27c.87,.03,1.67,.12,2.42,.29-.25-1.25-.62-2.39-1.11-3.43-.85-1.82-1.93-3.06-3.28-3.8-.67-.28-1.39-.42-2.2-.42-.12,0-.25,0-.38,0-.96,.06-1.88,.6-2.8,1.64-1.07,1.23-1.93,2.88-2.54,4.91-.64,2.1-.93,4.37-.87,6.75,.03,3.25,.62,6.03,1.74,8.32,1,2.03,2.27,3.25,3.88,3.74Z"/><path class="cls-9" d="M229.03,20.91c.1,0,.19,0,.29,0,3.13,.07,5.94,.89,8.42,2.47,2.48,1.58,4.4,3.62,5.75,6.1,1.35,2.48,2.14,5.21,2.38,8.18,.13,2.2,0,4.35-.38,6.45-.38,2.1-1.07,4.12-2.05,6.08-.98,1.95-2.4,3.66-4.25,5.12-1.85,1.47-4.03,2.52-6.53,3.15-1.26,.34-2.53,.5-3.81,.5-.11,0-.23,0-.34,0-3.13-.1-5.93-.96-8.38-2.58-2.45-1.62-4.34-3.68-5.68-6.2-1.33-2.52-2.08-5.26-2.25-8.22-.13-2.1,0-4.17,.4-6.2s1.06-4,1.97-5.9c.92-1.9,2.25-3.58,4-5.05,1.75-1.47,3.79-2.53,6.12-3.2,1.44-.47,2.87-.7,4.31-.7m-.01,33.8c2.3-.03,4.17-1.12,5.62-3.28,1.45-2.15,2.42-4.88,2.92-8.17,0-.57-.17-1.05-.53-1.45-.35-.4-.81-.67-1.38-.83-.57-.15-1.09-.26-1.58-.32-.32-.04-.65-.07-.98-.07-.16,0-.33,0-.49,.02-.83,.03-1.5,.23-2,.58-.5,.35-.81,.78-.92,1.28-.12,.5-.17,.98-.17,1.45s.05,.87,.15,1.2l.1,.5c-1-.07-1.84-.32-2.53-.77-.68-.45-1.14-.98-1.38-1.6-.23-.62-.34-1.23-.33-1.85,.02-.62,.16-1.14,.42-1.58,.7-1.1,1.73-1.92,3.08-2.45,1.27-.5,2.52-.75,3.75-.75,.07,0,.15,0,.22,0,1.3,.03,2.42,.25,3.35,.65,.57,.27,1.07,.65,1.5,1.15-.07-2.97-.62-5.57-1.67-7.8-1.05-2.23-2.46-3.82-4.23-4.75-.93-.41-1.96-.61-3.07-.61-.16,0-.32,0-.48,.01-1.53,.1-2.93,.88-4.2,2.33s-2.25,3.33-2.95,5.65c-.7,2.32-1.02,4.78-.95,7.38,.03,3.53,.68,6.58,1.95,9.15,1.27,2.57,3,4.17,5.2,4.8,.5,.1,1.02,.15,1.55,.15m.01-37.8h0c-1.83,0-3.68,.3-5.48,.88-2.84,.82-5.37,2.15-7.52,3.96-2.18,1.83-3.87,3.97-5.03,6.38-1.06,2.2-1.83,4.51-2.3,6.87-.46,2.36-.62,4.79-.47,7.23,.2,3.5,1.11,6.83,2.71,9.84,1.64,3.1,4,5.68,7.01,7.67,3.06,2.02,6.58,3.11,10.45,3.23,.18,0,.33,0,.47,0,1.62,0,3.24-.21,4.82-.63,3.03-.77,5.72-2.08,8-3.89,2.3-1.82,4.09-3.99,5.34-6.46,1.15-2.29,1.96-4.69,2.41-7.16,.44-2.41,.58-4.9,.43-7.41v-.07c-.28-3.51-1.24-6.8-2.85-9.77-1.67-3.07-4.06-5.62-7.11-7.56-3.1-1.98-6.63-3.02-10.49-3.1-.12,0-.25,0-.37,0h0Zm-.37,12.35c.08,0,.16,0,.24,0,.5,0,.94,.07,1.34,.22,.93,.54,1.69,1.47,2.34,2.84,.05,.1,.09,.2,.13,.3-1.7,.01-3.42,.36-5.13,1.03-1,.4-1.9,.9-2.69,1.51,.06-.26,.13-.51,.21-.76,.53-1.76,1.25-3.16,2.13-4.18,.53-.6,1.01-.93,1.43-.96h0Zm-.25,21.41c-.42-.14-1.22-.51-2.05-1.79,.95,.4,2,.65,3.15,.72,.09,0,.18,0,.27,0,.51,0,1-.1,1.47-.28-.83,1.18-1.57,1.36-2.25,1.38-.2,0-.4-.02-.58-.04h0Z"/></g><g><g><path class="cls-14" d="M260.84,59.94c-.5,0-1.03-.04-1.59-.13-1.61-.23-3.12-.35-4.48-.35-.66,0-1.3,.03-1.89,.08l-2.77,.35c-.07,0-.14,.01-.21,.02h-.3c-4.64,0-5-2.78-5-3.63,0-.61,.27-1.18,.75-1.56,.36-.29,.8-.44,1.25-.44,.14,0,.28,.01,.42,.05,.14,.03,.27,.04,.39,.04,.21,0,.55-.04,1-.37,.12-.09,.76-.67,1.17-3.15,.59-3.92,.89-9.99,.89-18.02-.04-1.4-.13-2.73-.26-3.88-.23-1.19-.68-2.58-1.52-2.58-.13,0-.29,.02-.46,.06-.14,.03-.29,.05-.44,.05-.45,0-.89-.15-1.25-.44-.47-.38-.75-.95-.75-1.56v-.25c0-.67,.3-1.23,.56-1.64,.26-.41,.57-.78,.92-1.09,.5-.44,1.16-.73,2.02-.9,.46-.09,.96-.13,1.48-.13,.25,0,.5,0,.78,.03,.04,0,.09,0,.13,.01,.66,.09,2.26,.2,6.09,.2,1.89,0,4.19-.03,6.84-.08,0,0,9.85-.5,9.89-.5,.65,0,1.25,.31,1.63,.84,.4,.56,.48,1.28,.22,1.91-.3,.74-.1,2.04,.56,3.65,.13,.34,.28,.58,.49,.81,.3,.32,.59,.57,.84,.75,.4,.28,.73,.51,1,.7,.31,.23,1.22,.89,1.22,2.05,0,.26-.05,.51-.15,.75-.22,.56-.74,1.3-1.9,1.68-.54,.18-1.08,.28-1.58,.28h-.5c-.36,0-.79-.06-1.34-.2-.38-.09-1-.31-2.46-1.11-1.13-.62-2.15-1.42-3.04-2.37-.99-1.06-2.19-1.71-3.69-1.99-.38-.07-.74-.11-1.06-.11-.93,0-1.4,.29-1.68,.53-.81,.88-1.18,2.15-1.13,3.89,.05,1.76,.54,3.03,1.5,3.88,.68,.61,1.48,1,2.45,1.19,.26,.05,.51,.08,.73,.08,.54,0,.81-.15,.97-.27h0s.09-.25-.11-.94c-.2-.57-.14-1.25,.19-1.84,.25-.44,.76-1.01,1.79-1.24,.06-.01,.12-.02,.18-.03,.23-.03,.47-.05,.7-.05,1.41,0,2.79,.54,4.09,1.62,.93,.84,1.45,1.75,1.62,2.77,.52,3.09-.86,4.87-2.11,5.82-1.42,1.08-3.21,1.63-5.34,1.63-.21,0-.42,0-.64-.02h-.02c-1.12,0-2.5-.22-4.03-.64-.78-.22-1.49-.43-2.13-.63v.6c.08,2.62,.24,4.93,.47,6.87l.14,1.11c.01,.08,.02,.17,.02,.25v.02c.22,1.67,.74,1.67,1.08,1.67h.15c.17-.05,.35-.07,.53-.07,.38,0,.77,.11,1.11,.34,.79,.53,1.1,1.54,.74,2.43-.49,1.19-1.82,3.19-5.17,3.19Z"/><path class="cls-9" d="M274.51,22.13c-.52,1.28-.33,3,.57,5.17,.19,.52,.48,.99,.89,1.42,.4,.43,.79,.77,1.17,1.03,.38,.26,.7,.49,.96,.67,.26,.19,.39,.33,.39,.42-.1,.24-.32,.41-.67,.53-.35,.12-.67,.18-.96,.18h-.5c-.19,0-.47-.05-.85-.14-.38-.09-1.04-.4-1.98-.92-.95-.52-1.79-1.18-2.55-1.98-1.28-1.37-2.87-2.23-4.78-2.59-.5-.09-.98-.14-1.42-.14-1.25,0-2.27,.37-3.07,1.1-1.23,1.27-1.81,3.07-1.74,5.38,.07,2.31,.79,4.08,2.16,5.31,.95,.85,2.08,1.41,3.4,1.67,.39,.08,.77,.12,1.12,.12,.83,0,1.54-.22,2.14-.65,.85-.61,1.06-1.65,.64-3.12-.1-.28,.07-.47,.5-.57,.15-.02,.3-.03,.44-.03,.94,0,1.88,.39,2.81,1.16,.52,.47,.83,.99,.92,1.56,.28,1.7-.17,3-1.35,3.9-1.07,.81-2.44,1.22-4.13,1.22-.18,0-.36,0-.54-.01-1.04,0-2.24-.19-3.61-.57-1.37-.38-2.48-.73-3.33-1.06l-1.27-.5-.07,3.47c.09,2.69,.26,5.05,.5,7.08,.05,.38,.09,.76,.14,1.13v.14c.28,2.36,1.3,3.54,3.08,3.54,.04,0,.07,0,.11,0,.33,0,.52-.02,.57-.07-.54,1.3-1.64,1.95-3.32,1.95-.39,0-.82-.04-1.28-.11-1.73-.25-3.33-.38-4.79-.38-.73,0-1.42,.03-2.08,.09-1.13,.14-2.08,.26-2.83,.35-.09,0-.17,0-.25,0-2,0-3-.54-3-1.63,.28,.06,.55,.09,.82,.09,.78,0,1.51-.25,2.19-.76,.92-.68,1.57-2.16,1.95-4.43,.61-4.06,.92-10.17,.92-18.35-.05-1.56-.14-2.95-.28-4.18-.53-2.86-1.7-4.29-3.5-4.29-.28,0-.58,.04-.89,.11v-.25c0-.12,.08-.31,.25-.57,.17-.26,.35-.48,.57-.67,.21-.19,.57-.33,1.06-.42,.33-.06,.7-.09,1.1-.09,.2,0,.41,0,.63,.02,1.06,.15,3.18,.22,6.37,.22,1.91,0,4.2-.03,6.88-.08l9.85-.5m0-4c-.07,0-.13,0-.2,0l-9.78,.49c-2.61,.05-4.88,.08-6.74,.08-3.91,0-5.32-.11-5.81-.18-.09-.01-.18-.02-.27-.03-.32-.02-.62-.03-.92-.03-.65,0-1.27,.05-1.84,.16-1.24,.24-2.2,.68-2.96,1.35-.51,.45-.93,.96-1.3,1.52-.38,.59-.88,1.51-.88,2.72v.25c0,1.21,.55,2.36,1.5,3.12,.72,.57,1.6,.88,2.5,.88,.08,0,.15,0,.23,0,.06,.19,.13,.45,.2,.79,.12,1.07,.2,2.29,.24,3.64,0,7.87-.29,13.81-.87,17.66-.16,.94-.34,1.48-.46,1.77-.19-.03-.39-.04-.58-.04-.9,0-1.78,.31-2.5,.89-.94,.76-1.47,1.9-1.47,3.11,0,.58,.2,5.63,7,5.63,.11,0,.22,0,.34,0,.14,0,.27-.01,.41-.03l2.76-.35h.01c.52-.05,1.07-.07,1.65-.07,1.26,0,2.68,.11,4.21,.34,.62,.1,1.26,.15,1.86,.15,3.3,0,5.86-1.61,7.02-4.42,.73-1.76,.11-3.79-1.48-4.85-.61-.41-1.3-.63-1.99-.67,0-.04,0-.08-.01-.12-.05-.37-.09-.74-.14-1.11-.15-1.32-.28-2.84-.37-4.53,1.49,.38,2.84,.57,4.09,.58,.22,0,.43,.01,.64,.01,2.57,0,4.78-.69,6.55-2.04,2.38-1.81,3.4-4.55,2.87-7.73-.09-.53-.25-1.05-.47-1.55,.5-.06,1.01-.17,1.52-.35,1.45-.48,2.57-1.49,3.11-2.83,.19-.48,.29-.98,.29-1.5,0-.99-.35-2.43-2.03-3.65-.3-.22-.64-.46-1.04-.73-.08-.06-.26-.19-.53-.48-.04-.04-.05-.05-.05-.05-.02-.05-.03-.09-.06-.15-.6-1.45-.56-2.07-.54-2.17,.5-1.26,.33-2.68-.46-3.78-.75-1.06-1.97-1.69-3.26-1.69h0Zm-10.07,11.68c.05-.01,.16-.03,.33-.03,.2,0,.44,.02,.7,.07,1.07,.2,1.89,.64,2.58,1.38,.05,.05,.09,.1,.14,.15-1.28,.52-1.94,1.41-2.25,1.95-.3,.52-.47,1.1-.53,1.69-.23-.11-.43-.25-.62-.42-.2-.18-.78-.7-.84-2.46-.03-1.06,.13-1.84,.48-2.32h0Z"/></g><g><path class="cls-13" d="M324.1,61.85c-.7,0-1.42-.04-2.13-.11-.56-.05-1.14-.13-1.71-.23-6.81-1.23-12.07-4.59-15.62-10.01-2.25-3.45-3.84-7.23-4.74-11.25-.89-3.99-1.17-7.83-.82-11.4,.35-3.56,1.21-6.97,2.56-10.12,1.55-3.55,3.34-6.44,5.33-8.58,2.02-2.17,4.86-4.02,8.43-5.49,1.72-.85,3.58-1.51,5.53-1.94,1.94-.43,3.43-.66,4.55-.72h1.66c.72,0,1.38,.38,1.74,1.01,.41,.73,.97,1.32,1.71,1.81,.03,.02,.06,.04,.09,.07,.05,.04,.11,.07,.18,.1,.07,.03,.15,.06,.22,.1,1.28,.7,2.93,1.09,4.9,1.17,.49,.02,.95,.03,1.4,.03,1.5,0,2.81-.12,3.87-.34l2.25-.49c.14-.03,.29-.05,.43-.05,.58,0,1.14,.25,1.53,.71,.48,.56,.61,1.35,.33,2.03-.1,.24-.23,.57-.4,.98-.16,.4-.5,1.05-1.68,2.58-.89,1.16-1.94,2.18-3.11,3.03-1.2,.87-2.8,1.6-4.87,2.24-1.76,.54-3.69,.82-5.74,.82-.34,0-.68,0-1.03-.02-1.54-.05-3.13-.42-4.72-1.07-.22-.09-.74-.31-1.51-.66-.7-.32-.94-.37-.95-.37,0,0-.28,.02-1,.16-.56,.11-1.25,.37-2.06,.8-1.42,.8-2.61,2.62-3.48,5.38-.97,3.07-1.47,6.57-1.47,10.41,0,3.05,.36,5.79,1.08,8.17,.69,2.29,1.58,4.05,2.63,5.24,1.09,1.23,2.2,2.16,3.31,2.75,1.02,.55,2.02,.83,2.95,.83h.68c6.62-.65,7.79-3.84,8.1-6.19,.2-1.35,.14-2.58-.16-3.67-.2-.71,.01-1.47,.55-1.98,.38-.36,.87-.55,1.38-.55,.21,0,.42,.03,.62,.1,.11,.04,.28,.08,.5,.14,.43,.11,1,.33,1.85,.73,.83,.39,1.59,.84,2.27,1.35,.73,.55,1.43,1.28,2.12,2.23,.75,1.04,1.23,2.2,1.42,3.46,.35,1.82-.03,3.91-1.15,6.13-1.02,2.02-2.47,3.9-4.29,5.57-1.84,1.68-4.18,3.04-6.95,4.02-2.13,.75-4.34,1.14-6.57,1.14Z"/><path class="cls-9" d="M327.14,4c.57,.99,1.35,1.82,2.34,2.48,.19,.14,.4,.26,.64,.35,1.56,.85,3.48,1.32,5.77,1.42,.51,.02,1.01,.03,1.48,.03,1.65,0,3.08-.13,4.29-.39l2.27-.5c-.09,.24-.22,.56-.39,.96-.17,.4-.64,1.11-1.42,2.12-.78,1.02-1.68,1.89-2.69,2.62-1.02,.73-2.44,1.38-4.29,1.95-1.58,.49-3.29,.73-5.15,.73-.31,0-.62,0-.94-.02-1.32-.05-2.67-.35-4.04-.92-.24-.09-.72-.31-1.45-.64-.73-.33-1.25-.51-1.56-.53-.04,0-.09,0-.15,0-.32,0-.8,.06-1.45,.18-.76,.14-1.63,.47-2.62,.99-1.94,1.09-3.42,3.27-4.46,6.55-1.04,3.28-1.56,6.95-1.56,11.01,0,3.26,.39,6.17,1.17,8.75,.78,2.57,1.79,4.57,3.05,5.99,1.25,1.42,2.54,2.48,3.86,3.19,1.32,.71,2.62,1.06,3.9,1.06h.78c6.04-.57,9.37-3.21,9.99-7.93,.24-1.6,.17-3.09-.21-4.46,.14,.05,.36,.11,.64,.18,.28,.07,.78,.27,1.49,.6,.71,.33,1.35,.71,1.91,1.13,.57,.42,1.13,1.03,1.7,1.81s.92,1.64,1.06,2.58c.28,1.46-.04,3.11-.96,4.92-.92,1.82-2.21,3.48-3.86,4.99-1.65,1.51-3.74,2.71-6.27,3.61-1.92,.68-3.89,1.02-5.9,1.02-.64,0-1.28-.03-1.92-.1-.52-.05-1.04-.12-1.56-.21-6.28-1.13-11.05-4.18-14.31-9.14-2.12-3.26-3.61-6.79-4.46-10.59-.85-3.8-1.11-7.39-.78-10.77,.33-3.38,1.13-6.55,2.41-9.53,1.46-3.35,3.12-6.02,4.96-8s4.44-3.66,7.79-5.03c1.61-.8,3.32-1.4,5.14-1.81,1.82-.4,3.22-.63,4.21-.67h1.56m0-4h-1.56c-.06,0-.13,0-.19,0-1.23,.06-2.83,.31-4.88,.76-2.08,.46-4.07,1.15-5.92,2.07-3.81,1.58-6.87,3.58-9.07,5.95-2.14,2.31-4.06,5.38-5.69,9.13-1.44,3.37-2.36,6.97-2.72,10.74-.37,3.78-.08,7.83,.86,12.03,.95,4.25,2.64,8.26,5.02,11.9,3.88,5.9,9.58,9.56,16.95,10.89,.61,.11,1.24,.2,1.88,.26,.77,.08,1.55,.12,2.31,.12,2.46,0,4.9-.42,7.24-1.25,3.02-1.07,5.59-2.56,7.63-4.43,2-1.83,3.6-3.9,4.73-6.14,1.31-2.59,1.76-5.08,1.33-7.41-.25-1.55-.84-2.98-1.77-4.26-.81-1.12-1.64-1.99-2.54-2.66-.78-.59-1.67-1.11-2.62-1.56-.98-.46-1.64-.72-2.2-.86-.17-.04-.29-.07-.37-.1-.4-.13-.82-.19-1.23-.19-1.02,0-2.02,.39-2.78,1.11-1.06,1.02-1.49,2.53-1.1,3.94,.23,.83,.27,1.77,.11,2.82v.07c-.19,1.35-.51,3.86-6.23,4.45h-.58c-.6,0-1.28-.2-2.01-.59-.9-.48-1.82-1.26-2.75-2.31-.86-.98-1.61-2.49-2.22-4.5-.66-2.19-1-4.74-1-7.59,0-3.63,.46-6.93,1.37-9.81,.69-2.17,1.6-3.68,2.57-4.25,.83-.43,1.28-.54,1.44-.57,.18-.03,.33-.06,.44-.08,.09,.04,.2,.08,.33,.14,.81,.36,1.29,.58,1.59,.7,1.8,.74,3.61,1.15,5.4,1.21,.35,.01,.72,.02,1.08,.02,2.24,0,4.37-.3,6.33-.91,2.28-.7,4.07-1.53,5.45-2.53,1.33-.96,2.52-2.12,3.53-3.43,1.04-1.36,1.62-2.26,1.94-3.03,.17-.42,.31-.75,.41-1,.55-1.37,.29-2.94-.66-4.07-.77-.91-1.89-1.41-3.05-1.41-.28,0-.57,.03-.86,.09l-2.27,.5c-.91,.19-2.07,.29-3.43,.29-.42,0-.86,0-1.32-.03-1.66-.07-3.02-.38-4.02-.93-.1-.05-.2-.1-.3-.15l-.04-.02c-.47-.31-.82-.68-1.08-1.13-.71-1.25-2.04-2.02-3.47-2.02h0Z"/></g><g><path class="cls-3" d="M377.01,60.22c-.46,0-.95-.05-1.48-.14-1.99-.27-3-.35-3.48-.36h-.21c-.72,0-1.93,.08-3.57,.24-.21,.02-.41,.03-.6,.03-2.12,0-3.77-1.18-4.52-3.24-.28-.77-.06-1.64,.55-2.19,.37-.33,.85-.5,1.33-.5,.23,0,.46,.04,.69,.12,.05,0,.1,0,.16,0,0,0,0,.02-.01,.03,.02-.03,.06-.08,.11-.17,.05-.09,.18-.37,.26-1,.22-2.54,.4-5.38,.51-8.43-1.3,.71-2.85,1.07-4.61,1.07h-.34c-.96-.04-2-.18-3.14-.44,.14,2.78,.33,5.26,.58,7.42,.1,1.14,.34,1.49,.39,1.55h.03l.36-.05c.09-.01,.19-.02,.28-.02,.62,0,1.22,.29,1.6,.8,.44,.58,.53,1.35,.23,2.02-.58,1.3-1.41,2.21-2.47,2.7-.67,.31-1.48,.47-2.38,.47-.39,0-.82-.03-1.27-.09-2.11-.34-3.1-.43-3.56-.44h-.21c-.72,0-1.92,.08-3.57,.24-.21,.03-.46,.04-.7,.04-2.06,0-3.67-1.16-4.41-3.19-.22-.61-.14-1.3,.24-1.83,.37-.54,.99-.85,1.64-.85,.1,0,.31,.01,.61,.06,.03,0,.12-.01,.23-.02h.04l.04-.07c.09-.16,.2-.46,.28-.97,.32-3.61,.53-7.7,.62-12.17,.09-4.45-.05-8.67-.42-12.55-.03-.49-.12-.86-.26-1.14-.22-.44-.36-.58-.38-.59-.14-.13-.3-.24-.47-.33-.19-.09-.34-.17-.44-.21-.52-.09-.99-.39-1.3-.84-.37-.54-.46-1.23-.22-1.85,.4-1.05,1.04-1.83,1.89-2.32,.61-.35,1.33-.52,2.22-.52,.38,0,.79,.03,1.23,.1,1.18,.15,2.4,.23,3.59,.23s2.4-.08,3.59-.23c.56-.06,1.05-.1,1.49-.1,.89,0,1.62,.13,2.22,.39,1.2,.52,1.96,1.58,2.14,2.99,.08,.57-.1,1.15-.48,1.58-.38,.43-.93,.68-1.5,.68-.15,0-.32-.01-.52-.04-.04,0-.11,.02-.19,.04-.08,.01-.15,.05-.22,.1h0s-.07,.11-.19,.37c-.12,.26-.27,.72-.36,1.52-.22,2.4-.32,5.67-.27,9.68,.03,.06,.18,.19,.64,.32,.28,.08,.55,.11,.79,.11,.44,0,.83-.12,1.24-.37,.23-.15,.33-.21,.15-.8-.22-.75-.12-1.47,.27-2.06,.28-.42,.83-.95,1.84-1.08,.28-.05,.57-.07,.85-.07,.91,0,1.8,.23,2.67,.69-.06-2.22-.17-4.36-.34-6.41-.08-.62-.29-1.18-.6-1.58-.28-.36-.47-.51-.54-.56l-.51-.1c-.57-.11-1.06-.47-1.35-.97-.29-.51-.34-1.11-.14-1.66,.41-1.14,1.07-1.96,1.98-2.44,.58-.31,1.27-.45,2.1-.45,.39,0,.82,.03,1.28,.1,1.2,.15,2.43,.23,3.63,.23s2.39-.08,3.55-.23c.57-.07,1.06-.1,1.5-.1,.89,0,1.62,.13,2.22,.38,1.2,.52,1.96,1.58,2.14,2.99,.08,.57-.1,1.15-.48,1.58s-.93,.68-1.5,.68c-.16,0-.32-.01-.49-.04-.05,0-.12,.02-.2,.04-.07,.02-.21,.15-.44,.59-.11,.22-.27,.64-.35,1.39-.27,3.71-.34,7.95-.2,12.54,.14,4.62,.4,8.76,.77,12.32,.04,.67,.15,.99,.24,1.16,.09,.17,.16,.28,.2,.33,.2-.06,.41-.1,.61-.1,.5,0,1,.19,1.38,.55,.61,.58,.79,1.49,.44,2.26-.57,1.28-1.38,2.19-2.42,2.71-.66,.33-1.43,.5-2.31,.5Z"/><path class="cls-9" d="M377.39,22.34c.61,0,1.08,.07,1.42,.22,.54,.24,.86,.71,.96,1.42-.09,0-.2-.01-.32-.04-.03,0-.07,0-.11,0-.14,0-.35,.03-.63,.08-.38,.07-.71,.22-.99,.46-.28,.24-.57,.63-.85,1.17-.28,.54-.47,1.24-.57,2.09-.28,3.87-.35,8.15-.21,12.82,.14,4.68,.4,8.83,.78,12.47,.05,.76,.2,1.38,.46,1.88,.26,.5,.52,.84,.78,1.03,.26,.19,.54,.31,.85,.35,.2,.03,.36,.05,.49,.05,.06,0,.11,0,.15-.01,.12-.02,.22-.06,.32-.11-.38,.85-.88,1.43-1.49,1.74-.38,.19-.85,.28-1.41,.28-.34,0-.72-.04-1.14-.11-1.75-.24-3-.37-3.75-.39-.08,0-.18,0-.27,0-.79,0-2.04,.08-3.76,.25-.14,.01-.27,.02-.4,.02-1.29,0-2.17-.64-2.65-1.93,.09,.05,.2,.08,.32,.11,.06,.01,.14,.02,.26,.02s.25,0,.42-.02c.33-.02,.64-.12,.92-.28,.28-.17,.54-.46,.78-.89s.4-.99,.5-1.7c.33-3.73,.54-7.89,.64-12.47s-.02-8.88-.35-12.89c-.14-1.09-.48-1.97-1.03-2.66s-1.05-1.1-1.52-1.24l-.71-.14c.24-.66,.58-1.11,1.03-1.35,.28-.15,.67-.22,1.16-.22,.3,0,.63,.03,1,.08,1.32,.17,2.63,.25,3.91,.25s2.56-.08,3.81-.25c.46-.05,.87-.08,1.23-.08m-19.62,.14c.61,0,1.08,.07,1.42,.22,.54,.24,.86,.71,.96,1.42-.09,0-.21-.01-.35-.04-.04,0-.08,0-.13,0-.15,0-.35,.03-.62,.08-.35,.07-.68,.21-.99,.42-.31,.21-.59,.6-.85,1.17-.26,.57-.44,1.28-.53,2.12-.24,2.55-.33,5.9-.28,10.06,.09,1.04,.8,1.74,2.12,2.09,.45,.12,.89,.18,1.31,.18,.82,0,1.58-.23,2.3-.68,1.09-.68,1.42-1.71,.99-3.08-.1-.33,.07-.52,.5-.57,.19-.03,.38-.05,.56-.05,.9,0,1.8,.37,2.69,1.11,.52,.47,.83,.99,.92,1.56,.28,1.75-.17,3.06-1.35,3.93-1.12,.83-2.56,1.24-4.31,1.24-.1,0-.19,0-.29,0-1.46-.05-3.24-.42-5.31-1.13,.14,3.97,.38,7.42,.71,10.34,.18,2.22,1,3.33,2.46,3.33,.03,0,.06,0,.09,0l.5-.07c-.38,.85-.87,1.42-1.49,1.7-.41,.19-.92,.28-1.54,.28-.31,0-.65-.02-1.01-.07-1.75-.28-3-.44-3.75-.46-.08,0-.17,0-.27,0-.79,0-2.04,.08-3.77,.25-.18,.02-.35,.03-.51,.03-1.23,0-2.08-.62-2.54-1.87,.05,0,.14,.01,.28,.04,.07,.01,.17,.02,.28,.02s.26,0,.43-.02c.33-.02,.64-.11,.92-.25s.54-.44,.78-.89c.24-.45,.4-1,.5-1.66,.33-3.68,.54-7.8,.64-12.36,.09-4.56-.05-8.82-.42-12.79-.05-.71-.2-1.32-.46-1.84s-.53-.91-.81-1.17c-.28-.26-.59-.47-.92-.64-.33-.17-.57-.27-.71-.32-.14-.05-.24-.07-.28-.07,.24-.61,.58-1.05,1.03-1.31,.29-.17,.69-.25,1.21-.25,.28,0,.6,.02,.95,.07,1.3,.17,2.59,.25,3.88,.25s2.57-.08,3.84-.25c.46-.05,.87-.08,1.23-.08m19.62-4.14c-.52,0-1.08,.03-1.69,.11h-.07c-1.07,.15-2.18,.22-3.28,.22s-2.24-.07-3.39-.21c-.55-.08-1.05-.11-1.53-.11-1.15,0-2.16,.23-3.02,.68-.52,.28-1.15,.71-1.72,1.39-.52-.58-1.16-1.05-1.9-1.37-.87-.38-1.85-.56-3.03-.56-.52,0-1.08,.03-1.69,.11h-.06c-1.1,.15-2.22,.22-3.33,.22s-2.23-.07-3.35-.21c-.53-.07-1.01-.11-1.48-.11-1.23,0-2.31,.27-3.22,.79-1.24,.72-2.2,1.88-2.76,3.34-.47,1.23-.31,2.61,.44,3.7,.56,.81,1.39,1.38,2.32,1.61,.03,.01,.06,.03,.1,.05l.03,.06h0s.03,.1,.05,.32c0,.04,0,.07,0,.11,.36,3.8,.5,7.95,.41,12.32-.09,4.11-.27,7.89-.55,11.27-1.02,.19-1.95,.77-2.55,1.64-.75,1.07-.93,2.44-.48,3.67,1.03,2.82,3.38,4.5,6.29,4.5,.31,0,.62-.02,.94-.06,1.95-.19,2.89-.23,3.34-.23h.15c.33,.01,1.19,.08,3.24,.41,.04,0,.08,.01,.12,.02,.53,.07,1.05,.1,1.53,.1,1.2,0,2.28-.22,3.22-.65,.84-.39,1.57-.95,2.19-1.66,1.24,1.4,3,2.19,5.01,2.19,.25,0,.51-.01,.77-.04,1.98-.19,2.94-.23,3.39-.23h.15c.35,.01,1.24,.07,3.28,.35,.61,.1,1.19,.15,1.74,.15,1.19,0,2.26-.24,3.2-.71,1.46-.73,2.59-1.97,3.35-3.69,.69-1.54,.33-3.35-.89-4.52-.53-.51-1.18-.85-1.86-1.01-.35-3.44-.59-7.44-.73-11.88-.14-4.48-.07-8.63,.2-12.32,0-.06,.02-.12,.02-.17,.95-.13,1.83-.6,2.47-1.33,.76-.87,1.11-2.02,.95-3.16-.28-2.09-1.49-3.75-3.32-4.55-.87-.38-1.86-.56-3.03-.56h0Zm-16.71,9.74c.8-.11,1.55-.45,2.14-.99,.45,.34,.98,.59,1.54,.72,.04,.07,.11,.23,.16,.57,.09,1.13,.17,2.28,.22,3.47-.19-.01-.38-.02-.57-.02-.38,0-.76,.03-1.14,.09-1.24,.17-2.09,.72-2.63,1.25,.04-1.89,.12-3.52,.25-4.88,0-.07,.02-.14,.03-.2h0Zm1.46,19.59c.87,0,1.7-.07,2.48-.22-.09,1.63-.19,3.2-.31,4.68-.61,.11-1.19,.36-1.69,.75-.43-.3-.91-.52-1.42-.64-.16-1.41-.29-2.95-.4-4.63,.31,.03,.62,.05,.92,.06,.16,0,.29,0,.42,0h0Z"/></g><g><path class="cls-7" d="M416.7,60.13c-.42,0-.86-.03-1.32-.1-1.92-.28-2.85-.33-3.28-.33s-1.46,.05-3.66,.27c-.18,.03-.42,.04-.66,.04-1.15,0-3.23-.42-4.32-3.22-.24-.62-.16-1.31,.22-1.85s.99-.87,1.65-.87c.26,0,.48,.04,.67,.09,.04,0,.14,.01,.27,.03,.09,0,.16,.01,.23,.01h.01s-.01-.04-.02-.07c-.48-1.44-.9-2.65-1.27-3.68-.96-2.7-1.46-3.38-1.56-3.5h0s-.22-.09-.73-.09c-.12,0-.24,0-.36,.01-.62,.02-.81,.13-.83,.16-.07,.09-.22,.55-.03,1.61l.13,.66c.12,.62-.05,1.25-.47,1.72-.38,.43-.93,.67-1.49,.67-.05,0-.11,0-.17,0-1.64-.14-2.99-.76-4.02-1.87-.57-.61-.98-1.25-1.24-1.92-.83,1.92-1.4,3.28-1.71,4.04-.25,.59-.28,.88-.28,.98,0,.21,.03,.3,.03,.3,.28,.15,.48,.26,.65,.33,.09,.04,.23,.08,.47,.11,.25,.03,.42,.05,.51,.06h.23c.66,0,1.28,.33,1.65,.87,.37,.55,.45,1.24,.21,1.86-1.21,3.1-3.49,3.57-4.74,3.57-.22,0-.45-.01-.69-.04-2.39-.28-4.44-.43-6.09-.43-.69,0-1.31,.02-1.86,.07-.2,.03-.4,.04-.59,.04-.99,0-1.87-.36-2.55-1.04-.75-.75-1.15-1.73-1.15-2.83s.9-2,2-2h.39c.11,0,.32-.04,.61-.08,.29-.04,.58-.13,.88-.26,.14-.06,.42-.21,.88-.63,.35-.32,.66-.73,.93-1.23,2.9-5.29,6.11-12.54,9.56-21.58,.01-.09,.03-.18,.06-.27,.14-.48,.21-.92,.21-1.29,0-.55-.04-.87-.07-1.05-.03-.16-.08-.3-.16-.44-.14-.25-.23-.34-.25-.36-.38-.13-.65-.24-.83-.32,.03,.01,.03,.02,.01,.02,0,0-.35-.03-.35-.03h-.11c-.67,0-1.29-.33-1.66-.89s-.44-1.26-.19-1.87c.65-1.58,1.95-2.73,3.86-3.42,1.08-.39,2.21-.59,3.35-.59,.64,0,1.3,.06,1.96,.19,1.27,.23,2.49,.71,3.59,1.41,1.05,.66,1.94,1.4,2.65,2.2,.69,.77,1.35,1.73,1.96,2.85,.59,1.07,1.03,1.98,1.34,2.77,.29,.73,.62,1.6,.98,2.62,.43,1.2,.63,1.66,.72,1.83,.02,.04,.04,.08,.05,.11,1.2,2.82,2.55,6.23,4.03,10.13,1.48,3.89,2.64,6.84,3.47,8.77,.68,1.48,1.18,1.67,1.19,1.67,.14-.03,.28-.04,.42-.04,.59,0,1.16,.26,1.55,.72,.48,.57,.61,1.36,.32,2.04-.9,2.17-2.76,3.36-5.21,3.36Zm-18.92-19.91s.05-.03,.08-.04c1.13-.56,2.29-.85,3.45-.85-.5-1.27-1-2.53-1.51-3.76-.51,1.19-1.19,2.74-2.01,4.65Z"/><path class="cls-9" d="M397.66,21.48c.52,0,1.05,.05,1.58,.15,1.04,.19,2.01,.57,2.9,1.13,.9,.57,1.64,1.18,2.23,1.84s1.16,1.49,1.7,2.48c.54,.99,.96,1.84,1.24,2.55,.28,.71,.6,1.56,.96,2.55,.35,.99,.63,1.68,.81,2.05,1.18,2.79,2.52,6.14,4,10.06,1.49,3.92,2.66,6.87,3.51,8.85,.88,1.92,1.88,2.88,3.02,2.88,.15,0,.3-.02,.45-.05-.59,1.42-1.72,2.13-3.37,2.13-.32,0-.66-.03-1.02-.08-1.65-.24-2.85-.35-3.58-.35s-2.02,.09-3.86,.28c-.16,.02-.31,.03-.45,.03-1.13,0-1.95-.65-2.45-1.95,.05,0,.12,.01,.21,.04,.09,.02,.28,.05,.57,.07,.14,.01,.27,.02,.4,.02s.24,0,.35-.02c.21-.02,.47-.08,.78-.18,.31-.09,.51-.25,.6-.46,.09-.21,.19-.48,.28-.81,.09-.33,.05-.75-.14-1.28-.47-1.42-.9-2.64-1.28-3.68-.76-2.12-1.39-3.49-1.91-4.11-.45-.53-1.2-.8-2.26-.8-.16,0-.33,0-.5,.02-2.27,.05-3.16,1.42-2.69,4.11l.14,.71c-1.13-.09-2.04-.51-2.73-1.24-.68-.73-1.03-1.5-1.03-2.3s.12-1.51,.35-2.12c.57-.9,1.32-1.58,2.27-2.05,.86-.43,1.72-.64,2.58-.64,.08,0,.17,0,.25,0,.94,.05,1.87,.17,2.76,.35-1.18-3.16-2.41-6.23-3.68-9.21-.27-.76-.53-1.14-.77-1.14-.01,0-.03,0-.04,0-.26,.05-.67,.66-1.24,1.84v.07c-.71,1.65-2.04,4.73-4,9.24-1.96,4.51-3.2,7.4-3.72,8.68-.28,.66-.43,1.24-.43,1.74s.08,.9,.25,1.21c.17,.31,.41,.57,.74,.78,.33,.21,.64,.38,.92,.5,.28,.12,.61,.2,.99,.25,.38,.05,.61,.07,.71,.07h.28c-.6,1.53-1.56,2.29-2.88,2.29-.15,0-.3,0-.45-.03-2.48-.29-4.59-.44-6.33-.44-.77,0-1.47,.03-2.1,.09-.12,.02-.24,.03-.36,.03-.45,0-.83-.15-1.13-.45-.38-.38-.57-.85-.57-1.42h.39c.17,0,.47-.04,.92-.11,.45-.07,.9-.2,1.35-.39,.45-.19,.93-.52,1.45-.99,.52-.47,.97-1.06,1.35-1.77,2.98-5.43,6.23-12.8,9.77-22.1v-.14c.19-.66,.28-1.27,.28-1.84s-.04-1.04-.11-1.42c-.07-.38-.2-.73-.39-1.06-.19-.33-.38-.59-.57-.78-.19-.19-.44-.34-.74-.46-.31-.12-.54-.21-.71-.28-.17-.07-.38-.12-.64-.14-.26-.02-.4-.04-.42-.04h-.18c.43-1.04,1.32-1.81,2.69-2.3,.87-.32,1.76-.47,2.67-.47m0-4c-1.37,0-2.73,.24-4.04,.71-3.07,1.11-4.43,3.08-5.03,4.54-.51,1.23-.36,2.64,.38,3.75,.7,1.04,1.84,1.69,3.07,1.76,0,.06,0,.12,0,.19,0,.11-.02,.35-.13,.74-.03,.09-.05,.19-.07,.28-3.39,8.87-6.54,15.98-9.37,21.14-.18,.34-.35,.57-.53,.73-.19,.18-.31,.25-.35,.28-.14,.06-.27,.09-.38,.11-.17,.03-.3,.05-.4,.06h-.29c-1.06,0-2.08,.42-2.83,1.17-.75,.75-1.17,1.77-1.17,2.83,0,1.61,.62,3.12,1.73,4.24,1.05,1.05,2.46,1.63,3.96,1.63,.27,0,.54-.02,.81-.05,.48-.04,1.03-.06,1.64-.06,1.58,0,3.55,.14,5.86,.41,.31,.04,.62,.06,.92,.06,3,0,5.41-1.76,6.61-4.84,.48-1.23,.32-2.62-.42-3.71-.04-.06-.09-.12-.13-.18,.64,.21,1.32,.34,2.02,.4,.11,0,.22,.01,.33,.01,1.14,0,2.23-.48,2.99-1.34,.24-.27,.44-.57,.6-.89,.11,.29,.21,.6,.32,.91-.7,.29-1.31,.78-1.76,1.43-.75,1.09-.91,2.47-.43,3.7,1.09,2.82,3.4,4.5,6.18,4.5,.3,0,.61-.02,.92-.06,2.19-.22,3.07-.26,3.4-.26,.24,0,1.03,.03,3.01,.31,.53,.08,1.07,.12,1.59,.12,3.27,0,5.84-1.68,7.06-4.6,.57-1.37,.33-2.95-.62-4.1-.67-.81-1.63-1.31-2.65-1.42-.07-.12-.15-.28-.24-.48-.82-1.91-1.97-4.82-3.42-8.65-1.49-3.92-2.85-7.35-4.06-10.2-.03-.08-.07-.15-.11-.23-.02-.04-.19-.38-.63-1.61-.36-1.02-.7-1.93-1.01-2.69-.35-.87-.82-1.85-1.45-2.99-.69-1.26-1.44-2.34-2.23-3.22-.84-.94-1.87-1.8-3.08-2.56-1.32-.84-2.78-1.41-4.32-1.69-.74-.14-1.52-.22-2.29-.22h0Z"/></g><g><path class="cls-12" d="M451.81,61.64c-1.22,0-2.4-.17-3.51-.52-1.22-.38-2.27-.91-3.12-1.58-1.37-.97-2.85-3.14-4.58-6.77l-5.17-10.91c-.55-1.17-1.1-2.26-1.63-3.27,0,4.21,.03,8.86,.09,13.9,0,.35,.05,.6,.16,.78,.15,.24,.24,.3,.24,.3,.25,.12,.53,.23,.82,.31,.12,.03,.19,.05,.23,.05,.24-.04,.43-.05,.58-.05,.76,0,1.25,.32,1.54,.59,.58,.56,.77,1.42,.48,2.17-.5,1.29-1.24,2.21-2.19,2.75-.64,.36-1.39,.54-2.23,.54-.43,0-.89-.05-1.38-.15-1.74-.26-2.61-.34-3.01-.35h-.16c-.62,0-1.68,.08-3.16,.24-.23,.02-.43,.03-.63,.03-2.1,0-3.68-1.16-4.33-3.18-.06-.2-.1-.4-.1-.61,0-1.14,.92-2.03,2.1-2.03,.13,0,.32,.01,.56,.05,.04,0,.11-.02,.22-.05,.32-.09,.63-.2,.92-.34,.01,0,.08-.07,.16-.21,.05-.09,.14-.3,.14-.74,.05-1.89-.02-10.23-.21-24.84-.46-1.96-1.22-1.98-1.6-1.99-.62-.02-1.21-.32-1.57-.83-.37-.51-.47-1.16-.29-1.75,.34-1.1,.94-1.92,1.79-2.41,.6-.35,1.34-.53,2.25-.53,.28,0,.58,.02,.92,.05,1.22,.17,2.37,.26,3.49,.26,.96,0,1.91-.06,2.85-.18,.38-.05,.72-.08,1.03-.08,.46-.09,.86-.13,1.24-.13,.73,0,1.37,.17,1.88,.5,1.17,.7,2.19,2.23,3.3,4.94,.92,2.25,2.07,5.13,3.41,8.57,.65,1.67,1.3,3.21,1.94,4.62-.02-.93-.04-1.92-.06-2.96-.18-7.55-.18-7.69-.18-7.73,0-.73-.12-1.15-.23-1.37-.16-.33-.27-.42-.27-.42-.22-.14-.45-.25-.65-.32-.03,0-.06,0-.09,0-.08,0-.15-.01-.23-.01h-.43c-.66,0-1.28-.33-1.65-.87-.37-.54-.45-1.24-.22-1.85,.39-1.02,.98-1.78,1.74-2.27,.59-.38,1.31-.57,2.15-.57,.35,0,.74,.04,1.14,.1,1.01,.14,2.08,.22,3.12,.22s2.1-.08,3.13-.23c.59-.08,1.12-.12,1.6-.12,3.76,0,4.34,2.52,4.42,3.29,.08,.67-.2,1.34-.72,1.77-.36,.3-.81,.45-1.27,.45-.21,0-.41-.03-.61-.1-.08-.03-.16-.05-.25-.08-.08,0-.17,.01-.27,.02-.06,0-.08,.02-.11,.04h0s-.12,.17-.31,.63c-.13,.32-.28,.93-.28,2.02-.09,9.4-.05,17.62,.14,24.45,0,.2,.03,.34,.06,.44,.36-.07,.87-.24,1.55-.63,.04-.02,.07-.04,.11-.06,.36-.18,.71-.27,1.06-.27,.64,0,1.29,.33,1.67,.85,.33,.46,.45,1.02,.36,1.58-.04,.36-.17,.76-.41,1.31-.65,1.7-1.64,3.05-2.93,4-1.33,.98-2.77,1.49-4.3,1.53h-.28Z"/><path class="cls-9" d="M434.77,22.15c.36,0,.63,.07,.81,.2,.75,.42,1.59,1.76,2.51,4,.92,2.24,2.05,5.09,3.4,8.54,1.35,3.45,2.66,6.33,3.93,8.64,.61,1.09,1.25,2.27,1.91,3.54,.05-2.5,.01-6.27-.11-11.3-.12-5.03-.18-7.59-.18-7.69,0-.9-.14-1.64-.43-2.23-.28-.59-.61-1-.99-1.24s-.74-.41-1.1-.53c-.25-.08-.49-.13-.7-.13-.09,0-.17,0-.25,.02h-.43c.24-.61,.55-1.05,.96-1.31,.26-.17,.61-.25,1.06-.25,.24,0,.52,.02,.82,.07,1.16,.17,2.31,.25,3.45,.25s2.28-.08,3.42-.25c.49-.07,.92-.1,1.32-.1,1.51,0,2.32,.51,2.44,1.52-.14-.05-.3-.09-.46-.14-.08-.02-.2-.03-.35-.03s-.33,.01-.54,.03c-.43,.05-.8,.2-1.13,.46-.33,.26-.64,.74-.92,1.45-.28,.71-.42,1.63-.42,2.76-.09,9.45-.05,17.61,.14,24.51,.05,1.23,.5,2.03,1.35,2.41,.11,.01,.22,.02,.34,.02,.86,0,1.83-.31,2.92-.94,.08-.04,.13-.06,.17-.06,.06,0,.07,.04,.04,.13,0,.14-.1,.43-.28,.85-.52,1.37-1.28,2.42-2.27,3.15-.99,.73-2.04,1.11-3.15,1.13-.08,0-.16,0-.24,0-1.02,0-1.99-.14-2.92-.43-.99-.31-1.82-.72-2.48-1.24-1.13-.8-2.47-2.82-4-6.06-1.53-3.23-3.26-6.87-5.17-10.91s-3.72-7.14-5.42-9.31c-.05,5.86-.02,12.8,.07,20.83,0,.71,.15,1.31,.46,1.81,.31,.5,.65,.84,1.03,1.03,.38,.19,.78,.34,1.21,.46,.3,.08,.56,.13,.78,.13,.09,0,.17,0,.25-.02,.13-.02,.23-.03,.31-.03s.13,.01,.15,.03c-.33,.85-.77,1.43-1.31,1.74-.34,.19-.75,.28-1.24,.28-.3,0-.63-.04-.99-.11-1.56-.24-2.67-.37-3.33-.39-.07,0-.15,0-.24,0-.7,0-1.82,.08-3.37,.25-.14,.01-.28,.02-.41,.02-1.23,0-2.04-.6-2.42-1.79,0-.02,.03-.03,.1-.03s.16,.01,.29,.03c.07,.01,.16,.02,.24,.02,.22,0,.48-.04,.78-.13,.42-.12,.84-.27,1.24-.46,.4-.19,.74-.52,1.03-.99,.28-.47,.43-1.06,.43-1.77,.05-1.89-.02-10.25-.21-25.08-.52-2.45-1.7-3.71-3.54-3.75,.19-.61,.48-1.04,.88-1.27,.29-.17,.7-.25,1.24-.25,.22,0,.45,.01,.71,.04,1.25,.18,2.48,.27,3.7,.27,1.04,0,2.08-.07,3.1-.2,.38-.05,.71-.07,.99-.07,.4-.08,.74-.13,1.03-.13m0-4c-.46,0-.94,.04-1.46,.14-.33,.01-.68,.04-1.06,.09-.87,.11-1.74,.17-2.61,.17-1.02,0-2.08-.08-3.13-.23-.05,0-.1-.01-.15-.02-.39-.04-.77-.06-1.12-.06-1.28,0-2.35,.26-3.27,.81-.88,.52-2.07,1.56-2.68,3.55-.37,1.2-.15,2.49,.58,3.51,.64,.89,1.62,1.48,2.7,1.63,.03,.08,.06,.17,.09,.29,.17,13.2,.24,21.22,.22,23.87h-.02c-2.3,0-4.1,1.77-4.1,4.03,0,.42,.06,.83,.19,1.22,.92,2.86,3.25,4.57,6.23,4.57,.26,0,.53-.01,.8-.04,1.89-.2,2.68-.23,2.99-.23h.1c.22,0,.95,.06,2.79,.34,.58,.11,1.14,.16,1.67,.16,1.18,0,2.26-.27,3.21-.8,1.37-.77,2.4-2.04,3.07-3.77,.16-.4,.24-.82,.27-1.24,1.36,2.47,2.62,4.08,3.95,5.05,1.03,.79,2.27,1.42,3.69,1.86,1.3,.4,2.68,.61,4.1,.61,.11,0,.21,0,.32,0,1.95-.04,3.78-.69,5.44-1.91,1.59-1.18,2.8-2.81,3.59-4.85,.23-.53,.44-1.1,.53-1.73,.19-1.09-.05-2.19-.71-3.09-.76-1.05-1.99-1.68-3.29-1.68-.28,0-.56,.03-.83,.09-.14-6.28-.16-13.68-.08-21.98,0-.23,0-.42,.02-.58,.84-.04,1.67-.35,2.34-.9,1.05-.86,1.59-2.19,1.44-3.54-.26-2.34-2.1-5.07-6.41-5.07-.57,0-1.2,.05-1.87,.14-.96,.14-1.92,.21-2.86,.21s-1.9-.07-2.85-.2c-.5-.08-.97-.12-1.42-.12-1.23,0-2.32,.3-3.23,.89-.78,.5-1.42,1.17-1.92,2.01-.72-1.09-1.47-1.85-2.32-2.36-.83-.53-1.82-.8-2.94-.8h0Zm1.12,33.74c-.02-1.53-.03-3.03-.05-4.49,.87,1.83,1.69,3.57,2.47,5.21-.69-.47-1.52-.72-2.39-.72h-.03Z"/></g><g><path class="cls-2" d="M475.3,61.78c-.89,0-1.79-.09-2.67-.26-.14-.02-.28-.04-.41-.08-.05,0-.1-.02-.16-.03-.6-.15-1.23-.33-1.85-.54-3.62-1.33-6.57-3.51-8.83-6.5-1.82-2.39-3.08-5.11-3.75-8.1-.66-2.92-.84-5.73-.53-8.36,.31-2.6,.98-5.1,1.99-7.43,1.71-4,4.53-7.15,8.37-9.34,1.37-.89,2.93-1.59,4.62-2.09,1.74-.51,3.14-.75,4.28-.75h1.35c.72,0,1.38,.39,1.74,1.01,.21,.37,.5,.69,.87,.98,0,0,.47,.24,.5,.26,.8,.45,1.87,.71,3.17,.77,.34,.01,.68,.02,1,.02h0c1.01,0,1.87-.08,2.56-.23l1.63-.35c.14-.03,.28-.05,.42-.05,.56,0,1.11,.24,1.49,.67,.48,.54,.63,1.29,.4,1.97-.08,.24-.21,.53-.39,.9-.2,.4-.57,.95-1.22,1.8-.65,.85-1.41,1.61-2.25,2.25-.91,.7-2.11,1.27-3.68,1.74-1.25,.38-2.61,.57-4.02,.57-.31,0-.63,0-.95-.03-1.17,0-2.37-.27-3.56-.77-.17-.06-.46-.18-1.1-.47-.26-.12-.43-.18-.51-.21-.07,0-.25,.03-.54,.08-.21,.04-.59,.15-1.15,.47-.98,.53-1.74,1.69-2.31,3.5-.67,2.13-1.01,4.56-1.01,7.23,0,2.1,.26,3.99,.76,5.6,.48,1.55,1.08,2.74,1.77,3.54,.71,.82,1.42,1.43,2.14,1.8,.65,.34,1.27,.51,1.83,.51h.48c3.87-.34,4.79-1.95,5.12-3.36,.29-2.8-.75-3.51-1.22-3.77-1.39-.67-2.15-.77-2.47-.77-.52,0-.7,.09-.7,.09-.06,.05-.08,.07-.14,.11l-.71,.5c-.34,.24-.74,.36-1.15,.36-.29,0-.59-.06-.86-.19-.65-.31-1.08-.94-1.14-1.66-.1-1.44,.25-4.89,5.78-5.8,.04,0,.07-.01,.1-.01,.75-.08,1.54-.12,2.35-.12,.2,0,.41,0,.61,0,1.02,.03,1.92,.07,2.75,.15,.42,.04,.81,.06,1.17,.06,.22,0,.43,0,.62-.02,.06,0,.1,0,.14-.01,.31-.24,.69-.38,1.08-.41,.05,0,.09,0,.14,0,.51,0,1,.2,1.38,.55l1.35,1.27c.6,.56,.79,1.43,.48,2.2-.47,1.17-.71,2.92-.71,5.21,0,3.38-.04,4.15-.08,4.45-.09,1.4-.67,2.84-1.71,4.3-.95,1.33-2.15,2.57-3.57,3.69-1.49,1.18-3.32,2.07-5.44,2.63-1.22,.33-2.46,.49-3.68,.49Z"/><path class="cls-9" d="M477.72,20.29c.38,.66,.9,1.23,1.56,1.7,.19,.09,.38,.19,.57,.28,1.08,.61,2.44,.96,4.07,1.03,.38,.02,.74,.02,1.08,.02,1.16,0,2.15-.09,2.99-.27l1.63-.35c-.05,.14-.14,.35-.28,.64-.14,.28-.48,.78-1.03,1.49-.54,.71-1.17,1.33-1.88,1.88-.71,.54-1.72,1.02-3.05,1.42-1.07,.32-2.22,.49-3.44,.49-.29,0-.58,0-.88-.03-.95,0-1.91-.21-2.9-.64-.14-.05-.47-.19-.99-.43-.52-.24-.88-.37-1.1-.39-.04,0-.09,0-.14,0-.22,0-.55,.04-.99,.11-.54,.1-1.15,.33-1.81,.71-1.42,.76-2.49,2.3-3.22,4.64-.73,2.34-1.1,4.95-1.1,7.83,0,2.31,.28,4.38,.85,6.2,.57,1.82,1.29,3.24,2.16,4.25,.87,1.02,1.78,1.77,2.73,2.27,.94,.5,1.87,.74,2.76,.74h.57c4.01-.33,6.35-2.01,7.01-5.03,.33-2.88-.42-4.84-2.27-5.88-1.37-.66-2.5-.99-3.4-.99s-1.56,.19-1.98,.57l-.71,.5c-.14-1.98,1.23-3.21,4.11-3.68,.68-.07,1.39-.11,2.13-.11,.19,0,.37,0,.56,0,.94,.02,1.82,.07,2.62,.14,.48,.04,.93,.06,1.34,.06,.28,0,.54,0,.78-.03,.61-.05,1.02-.19,1.21-.42l1.35,1.27c-.57,1.42-.85,3.4-.85,5.95s-.02,3.97-.07,4.25c-.05,1.04-.5,2.15-1.35,3.33-.85,1.18-1.91,2.28-3.19,3.29-1.27,1.01-2.85,1.77-4.71,2.27-1.06,.28-2.11,.42-3.16,.42-.8,0-1.6-.08-2.4-.25-.09,0-.17-.02-.21-.07h-.14c-.57-.14-1.13-.31-1.7-.5-3.21-1.18-5.83-3.12-7.86-5.81-1.65-2.17-2.79-4.62-3.4-7.33-.61-2.71-.78-5.28-.5-7.69,.28-2.41,.9-4.7,1.84-6.87,1.56-3.64,4.08-6.45,7.58-8.43,1.23-.8,2.61-1.43,4.14-1.88,1.53-.45,2.77-.67,3.72-.67h1.35m0-4h-1.35c-1.34,0-2.92,.27-4.84,.83-1.86,.55-3.58,1.32-5.1,2.3-4.2,2.41-7.29,5.87-9.18,10.27-1.09,2.49-1.81,5.19-2.14,7.98-.34,2.85-.14,5.89,.57,9.04,.74,3.26,2.12,6.25,4.12,8.87,2.48,3.29,5.74,5.7,9.67,7.14,.04,.01,.08,.03,.12,.04,.67,.22,1.34,.42,1.99,.58,.06,.01,.12,.03,.18,.04,.18,.05,.37,.09,.57,.11,.99,.19,1.99,.28,2.98,.28,1.39,0,2.8-.19,4.19-.56,2.39-.64,4.47-1.65,6.17-3,1.55-1.24,2.88-2.61,3.94-4.09,1.25-1.74,1.95-3.51,2.08-5.26,.05-.42,.09-1.31,.09-4.65,0-2.66,.35-3.94,.56-4.46,.61-1.52,.23-3.26-.96-4.39l-1.35-1.27c-.75-.71-1.73-1.1-2.75-1.1-.09,0-.18,0-.27,0-.56,.04-1.09,.19-1.57,.44-.05,0-.09,0-.14,0-.29,0-.63-.02-1-.05-.87-.08-1.81-.13-2.87-.16-.23,0-.45,0-.66,0-.88,0-1.75,.05-2.57,.14-.07,0-.14,.02-.21,.03-4.84,.79-6.58,3.3-7.18,5.36,0-.12,0-.23,0-.35,0-2.46,.31-4.69,.92-6.63,.45-1.44,.97-2.14,1.29-2.31,.04-.02,.07-.04,.1-.06,.23-.13,.39-.2,.46-.22,.57,.26,.9,.4,1.13,.48,1.4,.58,2.82,.89,4.22,.91,.34,.02,.68,.03,1.01,.03,1.61,0,3.16-.22,4.6-.66,1.8-.55,3.22-1.22,4.32-2.07,.97-.75,1.85-1.63,2.61-2.61,.75-.98,1.17-1.6,1.44-2.15,.22-.43,.38-.8,.49-1.14,.46-1.36,.15-2.87-.81-3.95-.77-.86-1.86-1.33-2.98-1.33-.28,0-.57,.03-.85,.09l-1.63,.35c-.38,.08-1.06,.18-2.14,.18-.29,0-.59,0-.91-.02-.97-.04-1.76-.22-2.27-.51-.06-.04-.13-.07-.2-.1l-.2-.1c-.12-.11-.19-.21-.23-.28-.71-1.25-2.04-2.02-3.48-2.02h0Zm-2.41,33.58c-.24,0-.55-.1-.9-.29-.49-.26-1.02-.71-1.55-1.33-.33-.38-.81-1.12-1.27-2.52,.34,.38,.76,.69,1.23,.91,.55,.26,1.13,.39,1.72,.39,.81,0,1.61-.24,2.3-.73l.47-.33c.16,.03,.61,.13,1.41,.5,.31,.27,.27,1.24,.23,1.7-.16,.58-.62,1.44-3.23,1.69h-.39Z"/></g><g><path class="cls-1" d="M517.83,59.97c-3.67-.23-7.43-.38-11.16-.42-1.58-.01-3.05-.02-4.38-.02-4.01,0-6.89,.05-8.57,.16-.23,.01-.42,.01-.59,.01-4.3,0-4.75-2.67-4.78-3.48-.03-.62,.24-1.22,.71-1.61,.36-.31,.82-.47,1.29-.47,.14,0,.28,.01,.42,.05,.14,.03,.27,.04,.39,.04,.22,0,.55-.04,1-.37,.12-.09,.75-.67,1.17-3.15,.59-3.87,.89-10.2,.89-18.79,0-2.15-.31-3.78-.91-4.87-.35-.62-.62-.62-.82-.62-.14,0-.3,.02-.47,.06-.16,.04-.31,.06-.47,.06-.44,0-.88-.15-1.24-.43-.48-.38-.76-.96-.76-1.57,0-.28,.04-.54,.1-.8,.06-.25,.19-.54,.43-.98,.26-.49,.62-.92,1.07-1.27,.47-.37,1.06-.65,1.82-.84,.42-.11,.88-.16,1.36-.16,.35,0,.72,.03,1.11,.08,.67,.07,2.42,.17,6.67,.17,1.75,0,3.79-.02,6.13-.05,0,0,9.84-.5,9.87-.5,.65,0,1.26,.32,1.64,.85,.39,.56,.47,1.29,.2,1.93-.14,.32-.36,1.33,.58,3.64,.1,.25,.26,.48,.49,.72,.3,.32,.58,.57,.84,.75,.4,.27,.73,.51,1,.7,1.19,.87,1.23,1.84,1.11,2.43h0c-.09,.45-.46,1.55-1.93,2.04-.55,.18-1.08,.28-1.58,.28h-.5c-.42,0-.88-.07-1.4-.21-.36-.1-.96-.31-2.4-1.1-1.12-.62-2.15-1.41-3.04-2.37-.95-1.02-2.13-1.64-3.62-1.92-.38-.07-.74-.11-1.05-.11-.95,0-1.38,.31-1.63,.54-.85,.82-1.24,2.05-1.19,3.77,.05,1.74,.54,3,1.5,3.85,.68,.61,1.48,1,2.45,1.19,.27,.05,.51,.08,.73,.08,.52,0,.77-.14,.92-.25h0s.07-.24-.12-.87c-.03-.09-.05-.19-.06-.29-.1-.68,.06-1.35,.46-1.87,.29-.38,.83-.85,1.76-.97,.23-.03,.47-.05,.72-.05,1.32,0,2.64,.48,3.91,1.41,.03,.02,.06,.05,.09,.07,.93,.78,1.52,1.77,1.69,2.86,.51,3.07-.87,4.85-2.11,5.8-1.42,1.08-3.2,1.62-5.28,1.62-.19,0-.38,0-.58-.01-1.2,0-2.58-.22-4.09-.64-.83-.23-1.56-.45-2.21-.66-.04,2.61,.2,4.72,.74,6.3,.18,.56,.49,.99,.98,1.38,.57,.45,1.17,.74,1.84,.89,.2,.04,.4,.06,.6,.06,.41,0,.85-.09,1.31-.26,.68-.25,1.24-.72,1.71-1.42,1.46-2.12,2.68-3.64,3.73-4.66,1.1-1.08,2.25-1.62,3.4-1.62,.43,0,.85,.08,1.25,.23,.55,.21,.99,.65,1.18,1.21,.2,.56,.14,1.17-.16,1.68-.79,1.34-1.27,3.05-1.43,5.09l-.57,5.84c-.1,1.03-.97,1.81-1.99,1.81-.04,0-.08,0-.13,0Z"/><path class="cls-9" d="M518.1,22.2c-.52,1.23-.33,2.95,.57,5.17,.19,.47,.48,.92,.88,1.35,.4,.43,.79,.77,1.17,1.03,.38,.26,.7,.49,.96,.67,.26,.19,.37,.33,.32,.42-.05,.24-.25,.41-.6,.53-.35,.12-.67,.18-.96,.18h-.5c-.24,0-.53-.05-.89-.14-.35-.09-1-.4-1.95-.92-.95-.52-1.79-1.18-2.55-1.98-1.23-1.32-2.8-2.16-4.71-2.51-.5-.09-.98-.14-1.42-.14-1.24,0-2.24,.37-3.01,1.1-1.28,1.23-1.88,2.99-1.81,5.28,.07,2.29,.79,4.05,2.16,5.28,.95,.85,2.08,1.41,3.4,1.66,.39,.08,.76,.12,1.11,.12,.83,0,1.53-.22,2.11-.65,.83-.61,1.03-1.63,.6-3.05-.05-.33,.12-.52,.5-.57,.16-.02,.31-.03,.47-.03,.89,0,1.8,.34,2.72,1.02,.57,.47,.9,1.02,.99,1.63,.28,1.7-.17,3-1.35,3.9-1.07,.81-2.43,1.22-4.07,1.22-.17,0-.35,0-.53-.01-1.04,0-2.24-.19-3.61-.57-1.37-.38-2.48-.73-3.33-1.06l-1.27-.5c-.33,4.16-.1,7.41,.71,9.78,.28,.9,.83,1.66,1.63,2.3,.8,.64,1.69,1.06,2.66,1.27,.34,.07,.68,.11,1.02,.11,.65,0,1.33-.13,2.02-.39,1.06-.4,1.95-1.12,2.66-2.16,1.37-1.98,2.53-3.44,3.47-4.36,.72-.7,1.39-1.06,2-1.06,.19,0,.37,.03,.55,.1-.95,1.61-1.51,3.59-1.7,5.95l-.57,5.81c-3.73-.24-7.48-.38-11.26-.43-1.6-.01-3.07-.02-4.41-.02-4.06,0-6.96,.05-8.69,.16-.16,0-.32,.01-.47,.01-1.81,0-2.74-.52-2.79-1.57,.28,.06,.55,.09,.82,.09,.78,0,1.51-.25,2.19-.76,.92-.68,1.57-2.16,1.95-4.43,.61-4.01,.92-10.39,.92-19.12,0-2.5-.39-4.45-1.17-5.84-.61-1.1-1.47-1.64-2.56-1.64-.3,0-.61,.04-.94,.12,0-.09,0-.19,.04-.28,.02-.09,.11-.27,.25-.53,.14-.26,.33-.48,.57-.67,.24-.19,.59-.34,1.06-.46,.26-.07,.55-.1,.87-.1,.26,0,.53,.02,.83,.06,1.13,.13,3.45,.19,6.95,.19,1.76,0,3.81-.02,6.16-.05l9.85-.5m0-4c-.07,0-.13,0-.2,0l-9.77,.49c-2.29,.03-4.32,.05-6.03,.05-4.25,0-5.86-.1-6.46-.16-.45-.06-.89-.09-1.31-.09-.64,0-1.26,.07-1.84,.22-1.06,.27-1.9,.66-2.6,1.22-.65,.52-1.19,1.16-1.58,1.89-.31,.56-.49,.99-.6,1.43-.11,.42-.16,.85-.16,1.29,0,1.23,.56,2.39,1.53,3.14,.71,.56,1.59,.86,2.47,.86,.08,0,.16,0,.24,0,.22,.63,.44,1.67,.44,3.37,0,8.47-.29,14.69-.87,18.49-.16,.94-.34,1.49-.46,1.78-.19-.03-.39-.04-.58-.04-.93,0-1.83,.33-2.56,.94-.95,.8-1.46,1.99-1.41,3.23,.11,2.49,1.94,5.4,6.78,5.4,.21,0,.43,0,.65-.02h.07c1.64-.1,4.48-.15,8.45-.15,1.33,0,2.8,0,4.38,.02,3.68,.05,7.4,.19,11.04,.42,.09,0,.17,0,.26,0,2.04,0,3.78-1.55,3.98-3.61l.57-5.81v-.07c.15-1.74,.54-3.17,1.17-4.24,.6-1.02,.72-2.25,.32-3.36-.39-1.11-1.26-2-2.37-2.41-.24-.09-.49-.17-.74-.22,.8-1.51,1.06-3.3,.74-5.26-.08-.51-.22-1.01-.43-1.48,.48-.06,.98-.17,1.48-.34,1.62-.54,2.81-1.77,3.2-3.32,.39-1.49-.01-3.33-1.83-4.66-.29-.21-.64-.45-1.04-.73-.09-.06-.26-.2-.53-.48-.07-.08-.1-.12-.1-.12-.56-1.4-.56-2.04-.55-2.18,.5-1.25,.34-2.67-.44-3.77-.75-1.07-1.98-1.71-3.28-1.71h0Zm-9.95,11.67s.13-.02,.28-.02c.2,0,.43,.02,.69,.07,1.07,.2,1.87,.61,2.51,1.31,.04,.05,.09,.09,.13,.14-.74,.3-1.39,.79-1.87,1.43-.48,.63-.77,1.36-.86,2.13-.21-.11-.4-.24-.58-.4-.2-.18-.78-.7-.84-2.43-.03-1.06,.15-1.81,.54-2.23h0Zm1.38,20.21c-.06,0-.11,0-.16-.02-.38-.08-.7-.24-1.03-.5-.25-.2-.29-.32-.3-.38,0-.03-.02-.06-.03-.09-.22-.64-.44-1.59-.56-2.97,1.53,.4,2.9,.59,4.18,.6,.21,0,.43,.01,.63,.01,.16,0,.32,0,.48,0-.57,.73-1.18,1.56-1.83,2.51-.33,.48-.58,.62-.77,.69-.24,.09-.45,.14-.61,.14h0Z"/></g></g></g></g></svg>